<svg version="1.1" xmlns="http://www.w3.org/2000/svg" viewBox="0 0 791.2599136532439 360.27125847633897" width="791.2599136532439" height="360.27125847633897" filter="invert(93%) hue-rotate(180deg)" class="excalidraw-svg">
  <!-- svg-source:excalidraw -->
  
  <defs>
    <style class="style-fonts">
      @font-face {
        font-family: "Virgil";
        src: url("https://excalidraw.com/Virgil.woff2");
      }
      @font-face {
        font-family: "Cascadia";
        src: url("https://excalidraw.com/Cascadia.woff2");
      }
      @font-face {
        font-family: "Assistant";
        src: url("https://excalidraw.com/Assistant-Regular.woff2");
      }
    </style>
    
  </defs>
  <rect x="0" y="0" width="791.2599136532439" height="360.27125847633897" fill="#ffffff"/><g stroke-linecap="round" transform="translate(255.63040073716763 -22.862376803713687) rotate(269.80502349535556 63.33333333333334 308.75000000000006)"><path d="M0 0 C48.46 -0.33, 93.26 1.39, 126.67 0 M0 0 C38.53 -0.83, 75.46 -1.11, 126.67 0 M126.67 0 C126.06 139.51, 124.92 277.94, 126.67 617.5 M126.67 0 C124.66 140.77, 125.03 282, 126.67 617.5 M126.67 617.5 C96.16 616.37, 61.47 619.74, 0 617.5 M126.67 617.5 C85.28 616.35, 42.82 616.77, 0 617.5 M0 617.5 C0.97 386.19, 0.63 156.42, 0 0 M0 617.5 C-0.47 475.33, -1.26 333.47, 0 0" stroke="#1e1e1e" stroke-width="2" fill="none"/></g><g stroke-linecap="round" transform="translate(33.96501755099325 231.2252827437763) rotate(269.80502349535556 63.33333333333337 55.41666666666667)"><path d="M-0.28 0.67 L126.44 0.1 L127.51 112.47 L0.88 110.01" stroke="none" stroke-width="0" fill="#a5d8ff"/><path d="M0 0 C48.19 2.25, 96.17 0.02, 126.67 0 M0 0 C43.96 -0.15, 87.68 0.48, 126.67 0 M126.67 0 C127.4 28.59, 125.67 53.91, 126.67 110.83 M126.67 0 C127.01 45.19, 125.94 88.87, 126.67 110.83 M126.67 110.83 C94.17 111.1, 58.78 111.19, 0 110.83 M126.67 110.83 C81.25 109.5, 34.97 109.97, 0 110.83 M0 110.83 C-0.38 85.98, -0.62 63.49, 0 0 M0 110.83 C0.75 78.74, -0.49 46.05, 0 0" stroke="#1e1e1e" stroke-width="2" fill="none"/></g><g transform="translate(64.65899236381881 273.89611607710964) rotate(269.80502349535556 32.63935852050781 12.745833333333337)"><text x="32.63935852050781" y="20.393766276041667" font-family="Helvetica, Segoe UI Emoji" font-size="22.166666666666668px" fill="#1e1e1e" text-anchor="middle" style="white-space: pre;" direction="ltr" dominant-baseline="alphabetic">Data 1</text></g><g stroke-linecap="round" transform="translate(-35.11791578033899 268.87703829447855) rotate(269.80502349535556 63.33333333333337 18.000000000000043)"><path d="M0 0 C41.15 -0.07, 84.62 -0.19, 126.67 0 M0 0 C27.02 0.94, 54.56 -0.18, 126.67 0 M126.67 0 C127.49 10.33, 128.19 20.81, 126.67 36 M126.67 0 C126.63 10.55, 127.54 19.5, 126.67 36 M126.67 36 C91.78 34.82, 57.35 36.16, 0 36 M126.67 36 C83.65 36.15, 41.49 35.99, 0 36 M0 36 C0.71 25.5, 2.03 13.38, 0 0 M0 36 C0.37 24.42, -0.59 13.36, 0 0" stroke="#e03131" stroke-width="2" fill="none"/></g><g transform="translate(-21.36557609934937 273.87703829447855) rotate(269.80502349535556 49.58099365234375 12.745833333333337)"><text x="49.58099365234375" y="20.393766276041667" font-family="Helvetica, Segoe UI Emoji" font-size="22.166666666666668px" fill="#e03131" text-anchor="middle" style="white-space: pre;" direction="ltr" dominant-baseline="alphabetic">Version=2</text></g><g stroke-linecap="round" transform="translate(176.4641924563906 230.74035874896194) rotate(269.80502349535556 63.33333333333337 55.41666666666667)"><path d="M-0.26 -0.2 L126.75 -1.4 L126.65 112.74 L0.81 110.28" stroke="none" stroke-width="0" fill="#e9ecef"/><path d="M0 0 C47.07 0.77, 92.65 -0.66, 126.67 0 M0 0 C29.51 0.88, 58.18 0.13, 126.67 0 M126.67 0 C125.46 43.6, 125.63 83.3, 126.67 110.83 M126.67 0 C126.68 24.89, 125.78 51.51, 126.67 110.83 M126.67 110.83 C77.51 108.27, 24.59 109.59, 0 110.83 M126.67 110.83 C77.29 110.32, 29.17 111.24, 0 110.83 M0 110.83 C1.16 84.01, 1.18 61.89, 0 0 M0 110.83 C1.51 72.84, 1.19 33.46, 0 0" stroke="#1e1e1e" stroke-width="2" fill="none"/></g><g transform="translate(207.15816726921616 273.4111920822953) rotate(269.80502349535556 32.63935852050781 12.745833333333337)"><text x="32.63935852050781" y="20.393766276041667" font-family="Helvetica, Segoe UI Emoji" font-size="22.166666666666668px" fill="#1e1e1e" text-anchor="middle" style="white-space: pre;" direction="ltr" dominant-baseline="alphabetic">Data 2</text></g><g stroke-linecap="round" transform="translate(107.38125912506007 268.39211429966485) rotate(269.80502349535556 63.33333333333334 18.000000000000043)"><path d="M0 0 C40.11 1.72, 82.17 1.33, 126.67 0 M0 0 C43.19 0.11, 83.96 0.15, 126.67 0 M126.67 0 C125.17 11.36, 124.61 27.17, 126.67 36 M126.67 0 C127.62 9.31, 126.01 17.79, 126.67 36 M126.67 36 C101.54 36.11, 72.46 34.31, 0 36 M126.67 36 C89.61 36.25, 53.36 37.16, 0 36 M0 36 C0.87 27.02, 0.79 22.59, 0 0 M0 36 C-0.22 23.61, -0.04 10.71, 0 0" stroke="#e03131" stroke-width="2" fill="none"/></g><g transform="translate(121.13359880604969 273.39211429966485) rotate(269.80502349535556 49.58099365234375 12.745833333333337)"><text x="49.58099365234375" y="20.393766276041667" font-family="Helvetica, Segoe UI Emoji" font-size="22.166666666666668px" fill="#e03131" text-anchor="middle" style="white-space: pre;" direction="ltr" dominant-baseline="alphabetic">Version=1</text></g><g stroke-linecap="round" transform="translate(318.9633673617892 230.25543475414756) rotate(269.80502349535556 63.333333333333314 55.416666666666714)"><path d="M0 0 C0 0, 0 0, 0 0 M0 0 C0 0, 0 0, 0 0 M0.13 12.04 C1.71 8.45, 5.23 7.25, 10.63 -0.03 M0.13 12.04 C2.21 9.01, 4.28 7.61, 10.63 -0.03 M0.27 24.08 C7.95 16.38, 15.04 7.13, 21.26 -0.07 M0.27 24.08 C6.07 17.01, 12.47 10.46, 21.26 -0.07 M-0.26 36.88 C8.37 26.71, 16.95 17.43, 31.89 -0.1 M-0.26 36.88 C6.51 28.29, 12.24 21.17, 31.89 -0.1 M-0.12 48.92 C14.6 31.43, 31.06 11.55, 42.52 -0.14 M-0.12 48.92 C10.98 37.02, 19.77 26.65, 42.52 -0.14 M0.01 60.96 C15.1 45.72, 24.31 29.51, 53.15 -0.17 M0.01 60.96 C11.89 47.04, 23.18 35.39, 53.15 -0.17 M0.14 73 C15.05 53.99, 27.19 41.03, 63.78 -0.21 M0.14 73 C20.55 50.23, 39.83 28.98, 63.78 -0.21 M0.28 85.04 C13.18 69.87, 31.12 50.41, 74.41 -0.24 M0.28 85.04 C18.24 64.93, 35.76 44.06, 74.41 -0.24 M-0.25 97.84 C22.07 73.26, 45.51 46.78, 85.04 -0.28 M-0.25 97.84 C23.38 71.28, 45.55 44.25, 85.04 -0.28 M-0.11 109.88 C23.43 84.83, 44.01 57.12, 95.67 -0.31 M-0.11 109.88 C18.4 88.23, 39.82 64.21, 95.67 -0.31 M9.2 111.35 C42.15 71.24, 73.01 37.51, 106.3 -0.34 M9.2 111.35 C47.71 69.1, 83.21 25.9, 106.3 -0.34 M19.83 111.32 C58.34 66.23, 97.53 25.02, 116.27 0.38 M19.83 111.32 C45 82.03, 70.92 53.83, 116.27 0.38 M30.46 111.28 C63.91 74.89, 96.47 38.28, 126.91 0.34 M30.46 111.28 C53.1 84.68, 76.26 57.62, 126.91 0.34 M41.09 111.25 C57.61 92.06, 75.42 72.97, 127.04 12.38 M41.09 111.25 C61.54 87.69, 81.95 63.68, 127.04 12.38 M51.72 111.21 C70.15 89.66, 88.96 66.91, 127.17 24.42 M51.72 111.21 C73.29 84.51, 96.19 58.7, 127.17 24.42 M62.35 111.18 C85.65 85.06, 108.91 57.89, 126.65 37.22 M62.35 111.18 C74.98 97.04, 87.79 81.48, 126.65 37.22 M72.98 111.15 C87.44 95.13, 101.95 76.88, 126.78 49.26 M72.98 111.15 C83.31 97.15, 94.92 85.57, 126.78 49.26 M83.61 111.11 C99.28 92.08, 116.82 72.36, 126.91 61.3 M83.61 111.11 C96.85 94.76, 110.08 79.01, 126.91 61.3 M94.24 111.08 C108.01 96.08, 116.43 83.91, 127.05 73.34 M94.24 111.08 C100.95 102.22, 108.93 95.02, 127.05 73.34 M104.87 111.04 C109.62 107.25, 114.68 99.52, 127.18 85.38 M104.87 111.04 C113.88 102.07, 121.08 93.04, 127.18 85.38 M115.51 111.01 C116.7 109.48, 119.05 106.42, 126.66 98.18 M115.51 111.01 C117.17 107.75, 121.08 105.23, 126.66 98.18 M126.14 110.97 C126.2 110.79, 126.49 110.63, 126.79 110.22 M126.14 110.97 C126.28 110.83, 126.45 110.62, 126.79 110.22" stroke="#868e96" stroke-width="1" fill="none"/><path d="M0 0 C43.42 3.11, 89.33 1.17, 126.67 0 M0 0 C32.69 -0.49, 64.54 0.65, 126.67 0 M126.67 0 C125.5 23.7, 128.55 47.18, 126.67 110.83 M126.67 0 C127.79 40.1, 126.93 81.78, 126.67 110.83 M126.67 110.83 C87.69 112.74, 50.37 110.28, 0 110.83 M126.67 110.83 C90.21 112.07, 51.83 111.88, 0 110.83 M0 110.83 C1.81 76.95, -1.35 43.76, 0 0 M0 110.83 C0.9 81.16, 0.29 51.78, 0 0" stroke="#1e1e1e" stroke-width="2" fill="none"/></g><g transform="translate(349.6573421746147 272.92626808748093) rotate(269.80502349535556 32.63935852050781 12.745833333333337)"><text x="32.63935852050781" y="20.393766276041667" font-family="Helvetica, Segoe UI Emoji" font-size="22.166666666666668px" fill="#1e1e1e" text-anchor="middle" style="white-space: pre;" direction="ltr" dominant-baseline="alphabetic">Data 3</text></g><g stroke-linecap="round" transform="translate(249.88043403045867 267.9071903048498) rotate(269.80502349535556 63.33333333333334 17.99999999999997)"><path d="M0 0 C49.38 0.92, 100.72 1.82, 126.67 0 M0 0 C30.99 -0.18, 63.22 -1.75, 126.67 0 M126.67 0 C128.21 10.58, 127.35 21.57, 126.67 36 M126.67 0 C126.67 8.21, 127.14 17.65, 126.67 36 M126.67 36 C80.45 35.68, 35.39 36.62, 0 36 M126.67 36 C80.15 36.09, 32.9 37.23, 0 36 M0 36 C-0.24 25.27, 0.72 17.9, 0 0 M0 36 C0.36 23.68, 0.4 11.53, 0 0" stroke="#e03131" stroke-width="2" fill="none"/></g><g transform="translate(263.6327737114483 272.9071903048498) rotate(269.80502349535556 49.58099365234375 12.745833333333337)"><text x="49.58099365234375" y="20.393766276041667" font-family="Helvetica, Segoe UI Emoji" font-size="22.166666666666668px" fill="#e03131" text-anchor="middle" style="white-space: pre;" direction="ltr" dominant-baseline="alphabetic">Version=0</text></g><g stroke-linecap="round" transform="translate(665.6393893325703 232.42039389893102) rotate(269.80502349535556 60.000000000000014 55.416666666666686)"><path d="M0 0 C0 0, 0 0, 0 0 M0 0 C0 0, 0 0, 0 0 M0.13 12.04 C5.56 7.78, 7.84 3.51, 10.63 -0.03 M0.13 12.04 C3.78 8.15, 7.35 3.45, 10.63 -0.03 M0.27 24.08 C6.2 17.58, 10.28 12.28, 21.26 -0.07 M0.27 24.08 C7.97 15.64, 16.62 4.36, 21.26 -0.07 M-0.26 36.88 C11.11 25.09, 22.79 8.85, 31.89 -0.1 M-0.26 36.88 C10.08 26.21, 18.86 14.86, 31.89 -0.1 M-0.12 48.92 C11.7 35.02, 23.75 19.76, 42.52 -0.14 M-0.12 48.92 C9.79 36.8, 19.14 26.52, 42.52 -0.14 M0.01 60.96 C16.02 43.83, 29.34 26.59, 53.15 -0.17 M0.01 60.96 C11.78 47.28, 21.22 35.15, 53.15 -0.17 M0.14 73 C22.89 48.7, 41.42 23.88, 63.78 -0.21 M0.14 73 C24.34 45.39, 48.11 19.63, 63.78 -0.21 M0.28 85.04 C30.03 54.15, 56.91 22.25, 74.41 -0.24 M0.28 85.04 C29.73 51.15, 59.68 17.4, 74.41 -0.24 M-0.25 97.84 C23.34 72.3, 40.6 47.82, 85.04 -0.28 M-0.25 97.84 C19.66 75.33, 38.12 54.7, 85.04 -0.28 M-0.11 109.88 C19.74 86.48, 39.65 61.11, 95.67 -0.31 M-0.11 109.88 C38.55 68.1, 75.83 24.17, 95.67 -0.31 M5.27 115.88 C38.79 75.93, 77.63 33.2, 106.3 -0.34 M5.27 115.88 C29.63 88.77, 52.79 61.21, 106.3 -0.34 M15.9 115.85 C44.37 81.63, 74.62 46.53, 116.27 0.38 M15.9 115.85 C54.7 73.27, 91.28 30.28, 116.27 0.38 M26.53 115.81 C52.39 84.15, 80.56 50.92, 124.28 3.36 M26.53 115.81 C61.13 76.86, 95.5 37.36, 124.28 3.36 M37.16 115.78 C66.68 81.88, 99.19 43.3, 124.41 15.4 M37.16 115.78 C62.64 87.69, 87.84 57.2, 124.41 15.4 M47.79 115.74 C71.92 88.63, 93.9 62.07, 123.89 28.2 M47.79 115.74 C73.16 87.55, 98.05 57.22, 123.89 28.2 M58.42 115.71 C76.87 93.29, 98.97 68.51, 124.02 40.24 M58.42 115.71 C81.73 90.57, 103.34 63.41, 124.02 40.24 M69.05 115.67 C88.86 93.88, 107.76 70.36, 124.16 52.28 M69.05 115.67 C83.5 98.14, 99.76 81.06, 124.16 52.28 M79.68 115.64 C94.88 95.17, 109.7 80.86, 124.29 64.32 M79.68 115.64 C93.53 99.63, 106.35 85.1, 124.29 64.32 M90.31 115.6 C97.71 105.33, 104.62 96.59, 124.42 76.36 M90.31 115.6 C98.55 105.34, 106.03 96.81, 124.42 76.36 M100.94 115.57 C104.71 108.43, 109.81 102.35, 123.9 89.16 M100.94 115.57 C105.71 110.55, 111.73 104.99, 123.9 89.16 M111.57 115.54 C116.93 108.17, 122.45 105.28, 124.03 101.2 M111.57 115.54 C115.1 111.09, 118.3 107.32, 124.03 101.2" stroke="#868e96" stroke-width="1" fill="none"/><path d="M0 0 C30.33 0.11, 60.2 -1.1, 120 0 M0 0 C35.28 -0.54, 71.61 -0.17, 120 0 M120 0 C120 39.4, 120.64 77.28, 120 110.83 M120 0 C121.21 23.13, 121.12 44.67, 120 110.83 M120 110.83 C85.13 113.12, 50.3 112.44, 0 110.83 M120 110.83 C95.46 110.99, 71.71 112, 0 110.83 M0 110.83 C-0.52 68.37, 0.47 25.35, 0 0 M0 110.83 C-0.98 75, -1.41 40.01, 0 0" stroke="#1e1e1e" stroke-width="2" fill="none"/></g><g transform="translate(691.1608889663594 275.0912272322644) rotate(269.80502349535556 34.47850036621094 12.745833333333337)"><text x="34.47850036621094" y="20.393766276041667" font-family="Helvetica, Segoe UI Emoji" font-size="22.166666666666668px" fill="#1e1e1e" text-anchor="middle" style="white-space: pre;" direction="ltr" dominant-baseline="alphabetic">Data N</text></g><g stroke-linecap="round" transform="translate(584.8784943343792 266.76719354511135) rotate(269.80502349535556 63.33333333333334 18)"><path d="M0 0 C36.7 1.51, 73.39 -0.95, 126.67 0 M0 0 C32.12 -0.18, 63.92 0.37, 126.67 0 M126.67 0 C124.87 13.11, 127.39 23.61, 126.67 36 M126.67 0 C126.58 13.98, 127.17 27.53, 126.67 36 M126.67 36 C75.44 38.3, 29.87 36.45, 0 36 M126.67 36 C101.14 35.55, 73.69 35.54, 0 36 M0 36 C0.33 27.27, -1.04 14.95, 0 0 M0 36 C0.74 28.16, 1.12 21.66, 0 0" stroke="#e03131" stroke-width="2" fill="none"/></g><g transform="translate(598.6308340153688 271.76719354511135) rotate(269.80502349535556 49.58099365234375 12.745833333333337)"><text x="49.58099365234375" y="20.393766276041667" font-family="Helvetica, Segoe UI Emoji" font-size="22.166666666666668px" fill="#e03131" text-anchor="middle" style="white-space: pre;" direction="ltr" dominant-baseline="alphabetic">Version=0</text></g><g transform="translate(514.2234424019615 265.58728659837084) rotate(269.80502349535556 9.233573913574219 12.745833333333337)"><text x="0" y="20.393766276041667" font-family="Helvetica, Segoe UI Emoji" font-size="22.166666666666668px" fill="#1e1e1e" text-anchor="start" style="white-space: pre;" direction="ltr" dominant-baseline="alphabetic">...</text></g><g mask="url(#mask-CvcT4lih-N4MVO4g7K0_L)" stroke-linecap="round"><g transform="translate(349.04684116547406 110.02396237752035) rotate(269.80502349535556 -100.00000000000003 -2.4868995751603507e-14)"><path d="M0 0 C-46.63 -1.9, -96.18 -1.06, -200 0 M0 0 C-74.05 0.01, -148.65 -0.39, -200 0" stroke="#e03131" stroke-width="2" fill="none"/></g><g transform="translate(349.04684116547406 110.02396237752035) rotate(269.80502349535556 -100.00000000000003 -2.4868995751603507e-14)"><path d="M-176.54 -8.63 C-180.23 -7.14, -187.18 -4.12, -200 0 M-176.54 -8.63 C-184.99 -5.57, -193.99 -2.81, -200 0" stroke="#e03131" stroke-width="2" fill="none"/></g><g transform="translate(349.04684116547406 110.02396237752035) rotate(269.80502349535556 -100.00000000000003 -2.4868995751603507e-14)"><path d="M-176.48 8.47 C-180.22 5.82, -187.19 4.7, -200 0 M-176.48 8.47 C-184.81 5.17, -193.82 1.58, -200 0" stroke="#e03131" stroke-width="2" fill="none"/></g></g><mask id="mask-CvcT4lih-N4MVO4g7K0_L"><rect x="0" y="0" fill="#fff" width="649.0468411654741" height="210.0239623775204"/><rect x="192.240200540474" y="77.82396237752029" fill="#000" width="113.61328125" height="64.4" opacity="1"/></mask><g transform="translate(192.80629919640614 77.25593401282443) rotate(0 56.24054196906789 32.201926430955645)"><text x="56.806640625" y="25.760546875000003" font-family="Helvetica, Segoe UI Emoji" font-size="28.000000000000007px" fill="#e03131" text-anchor="middle" style="white-space: pre;" direction="ltr" dominant-baseline="alphabetic">Producer</text><text x="56.806640625" y="57.960546875000006" font-family="Helvetica, Segoe UI Emoji" font-size="28.000000000000007px" fill="#e03131" text-anchor="middle" style="white-space: pre;" direction="ltr" dominant-baseline="alphabetic">writing</text></g><g mask="url(#mask-jtZwARpKpt9EiLfbJSazi)" stroke-linecap="round"><g transform="translate(190.11489823519003 109.99942098624437) rotate(269.80502349535556 -100 -5.3290705182007514e-14)"><path d="M0 0 C-63.73 -0.14, -128.91 1.19, -200 0 M0 0 C-50.48 -0.58, -101.69 -0.75, -200 0" stroke="#1971c2" stroke-width="2" fill="none"/></g><g transform="translate(190.11489823519003 109.99942098624437) rotate(269.80502349535556 -100 -5.3290705182007514e-14)"><path d="M-176.56 -8.68 C-182.87 -6.82, -190.84 -2.53, -200 0 M-176.56 -8.68 C-182.11 -7.23, -188.4 -5.21, -200 0" stroke="#1971c2" stroke-width="2" fill="none"/></g><g transform="translate(190.11489823519003 109.99942098624437) rotate(269.80502349535556 -100 -5.3290705182007514e-14)"><path d="M-176.46 8.42 C-182.86 4.73, -190.85 3.48, -200 0 M-176.46 8.42 C-181.9 5.51, -188.22 3.18, -200 0" stroke="#1971c2" stroke-width="2" fill="none"/></g></g><mask id="mask-jtZwARpKpt9EiLfbJSazi"><rect x="0" y="0" fill="#fff" width="490.11489823519" height="209.9994209862445"/><rect x="25.535796672690026" y="61.69942098624432" fill="#000" width="129.158203125" height="96.60000000000001" opacity="1"/></mask><g transform="translate(25.536512587028028 61.69870263150801) rotate(0 64.578385648162 48.300002436252996)"><text x="64.5791015625" y="25.760546875000003" font-family="Helvetica, Segoe UI Emoji" font-size="28.000000000000007px" fill="#1971c2" text-anchor="middle" style="white-space: pre;" direction="ltr" dominant-baseline="alphabetic">Written,</text><text x="64.5791015625" y="57.960546875000006" font-family="Helvetica, Segoe UI Emoji" font-size="28.000000000000007px" fill="#1971c2" text-anchor="middle" style="white-space: pre;" direction="ltr" dominant-baseline="alphabetic">Consumer</text><text x="64.5791015625" y="90.16054687500001" font-family="Helvetica, Segoe UI Emoji" font-size="28.000000000000007px" fill="#1971c2" text-anchor="middle" style="white-space: pre;" direction="ltr" dominant-baseline="alphabetic">Reading</text></g><g stroke-linecap="round" transform="translate(356.79421854203554 124.07219758801858) rotate(0 50 10.000000000000002)"><path d="M0 0 C21.28 1.63, 40.9 -0.13, 100 0 M0 0 C32.14 -0.3, 66.78 -0.29, 100 0 M100 0 C100.31 6.7, 98.28 12.12, 100 20 M100 0 C100.72 5.2, 99.37 12.45, 100 20 M100 20 C73.8 19.59, 47.36 21.58, 0 20 M100 20 C75.5 19.71, 51.3 19.62, 0 20 M0 20 C-1.35 14.65, 0.32 12.29, 0 0 M0 20 C-0.03 14.38, 0.37 8.06, 0 0" stroke="#e03131" stroke-width="2" fill="none"/></g><g transform="translate(458.69898044679746 117.4055309213519) rotate(0 61.8720703125 16.099999999999998)"><text x="0" y="25.760546874999996" font-family="Helvetica, Segoe UI Emoji" font-size="28px" fill="#e03131" text-anchor="start" style="white-space: pre;" direction="ltr" dominant-baseline="alphabetic">= Seqlock</text></g><g stroke-linecap="round" transform="translate(358.020409018226 82.63190740944671) rotate(0 49.76190476190473 13.749999999999979)"><path d="M0 0 C0 0, 0 0, 0 0 M0 0 C0 0, 0 0, 0 0 M0.13 12.04 C1.84 8, 5.86 4.4, 10.63 -0.03 M0.13 12.04 C1.86 10.19, 3.59 6.85, 10.63 -0.03 M0.27 24.08 C6.62 18.83, 9.8 14.08, 21.26 -0.07 M0.27 24.08 C7.34 17.07, 13.65 8.9, 21.26 -0.07 M7.62 27.82 C17.27 20.32, 25.26 10.71, 31.89 -0.1 M7.62 27.82 C12.64 21.08, 18.77 14.78, 31.89 -0.1 M18.25 27.79 C26.3 18.33, 32.93 9.18, 42.52 -0.14 M18.25 27.79 C25.34 19.19, 33.36 8.74, 42.52 -0.14 M28.88 27.75 C38.19 17.87, 45.12 11.15, 53.15 -0.17 M28.88 27.75 C35.74 19.98, 42.02 13.03, 53.15 -0.17 M38.85 28.47 C47.45 17.78, 57.51 8.72, 63.78 -0.21 M38.85 28.47 C44.93 19.96, 51.81 12.19, 63.78 -0.21 M49.48 28.44 C59.42 18.67, 64.67 8.88, 74.41 -0.24 M49.48 28.44 C55.93 20.6, 62.8 12.92, 74.41 -0.24 M60.11 28.4 C67.24 22.08, 75.01 14.15, 85.04 -0.28 M60.11 28.4 C66.83 20.38, 73.35 13.04, 85.04 -0.28 M70.74 28.37 C81.51 15.89, 90.65 5.17, 95.67 -0.31 M70.74 28.37 C75.55 21.91, 81.82 15.91, 95.67 -0.31 M81.37 28.33 C87.4 19.86, 97.98 12.39, 100.4 6.45 M81.37 28.33 C88.6 20.98, 94.49 11.68, 100.4 6.45 M92 28.3 C94.15 24.78, 95.55 23.71, 99.87 19.24 M92 28.3 C93.92 25.35, 96.02 22.84, 99.87 19.24" stroke="#868e96" stroke-width="1" fill="none"/><path d="M0 0 C27.7 1.52, 53.52 0.86, 99.52 0 M0 0 C28.98 -0.4, 59.44 -1.48, 99.52 0 M99.52 0 C99.39 6.32, 101.42 15.86, 99.52 27.5 M99.52 0 C98.64 9.22, 98.4 16.62, 99.52 27.5 M99.52 27.5 C63.99 27.57, 32.77 27.3, 0 27.5 M99.52 27.5 C58.97 27.87, 19.96 28.02, 0 27.5 M0 27.5 C-1.25 20.64, 1.63 15.86, 0 0 M0 27.5 C-1.17 20.27, 0.21 12.05, 0 0" stroke="#1e1e1e" stroke-width="2" fill="none"/></g><g transform="translate(460.4013613991784 79.47714550468481) rotate(0 51.7412109375 16.099999999999998)"><text x="0" y="25.760546874999996" font-family="Helvetica, Segoe UI Emoji" font-size="28px" fill="#1e1e1e" text-anchor="start" style="white-space: pre;" direction="ltr" dominant-baseline="alphabetic">= Empty</text></g></svg>