<svg version="1.1" xmlns="http://www.w3.org/2000/svg" viewBox="0 0 1520 1020" width="1520" height="1020" filter="invert(93%) hue-rotate(180deg)" class="excalidraw-svg">
  <!-- svg-source:excalidraw -->
  
  <defs>
    <style class="style-fonts">
      @font-face {
        font-family: "Virgil";
        src: url("https://excalidraw.com/Virgil.woff2");
      }
      @font-face {
        font-family: "Cascadia";
        src: url("https://excalidraw.com/Cascadia.woff2");
      }
      @font-face {
        font-family: "Assistant";
        src: url("https://excalidraw.com/Assistant-Regular.woff2");
      }
    </style>
    
  </defs>
  <rect x="0" y="0" width="1520" height="1020" fill="#ffffff"/><g stroke-linecap="round" transform="translate(70 150) rotate(0 70 60)"><path d="M30 0 C50.52 0, 71.04 0, 110 0 C130 0, 140 10, 140 30 C140 49.19, 140 68.38, 140 90 C140 110, 130 120, 110 120 C78.53 120, 47.07 120, 30 120 C10 120, 0 110, 0 90 C0 71.39, 0 52.78, 0 30 C0 10, 10 0, 30 0" stroke="none" stroke-width="0" fill="#b2f2bb"/><path d="M30 0 C51.58 0, 73.16 0, 110 0 M30 0 C59.79 0, 89.57 0, 110 0 M110 0 C130 0, 140 10, 140 30 M110 0 C130 0, 140 10, 140 30 M140 30 C140 50.57, 140 71.14, 140 90 M140 30 C140 43.2, 140 56.41, 140 90 M140 90 C140 110, 130 120, 110 120 M140 90 C140 110, 130 120, 110 120 M110 120 C83.16 120, 56.31 120, 30 120 M110 120 C82.54 120, 55.07 120, 30 120 M30 120 C10 120, 0 110, 0 90 M30 120 C10 120, 0 110, 0 90 M0 90 C0 66.99, 0 43.99, 0 30 M0 90 C0 76.17, 0 62.34, 0 30 M0 30 C0 10, 10 0, 30 0 M0 30 C0 10, 10 0, 30 0" stroke="#1e1e1e" stroke-width="1" fill="none"/></g><g transform="translate(88.3154296875 187) rotate(0 51.6845703125 23)"><text x="51.6845703125" y="18.400390625" font-family="Helvetica, Segoe UI Emoji" font-size="20px" fill="#1e1e1e" text-anchor="middle" style="white-space: pre;" direction="ltr" dominant-baseline="alphabetic">MarketData</text><text x="51.6845703125" y="41.400390625" font-family="Helvetica, Segoe UI Emoji" font-size="20px" fill="#1e1e1e" text-anchor="middle" style="white-space: pre;" direction="ltr" dominant-baseline="alphabetic">Handler</text></g><g stroke-linecap="round" transform="translate(10 710) rotate(0 80 40)"><path d="M20 0 C56.54 0, 93.07 0, 140 0 M20 0 C57.89 0, 95.79 0, 140 0 M140 0 C153.33 0, 160 6.67, 160 20 M140 0 C153.33 0, 160 6.67, 160 20 M160 20 C160 32.88, 160 45.76, 160 60 M160 20 C160 29.15, 160 38.3, 160 60 M160 60 C160 73.33, 153.33 80, 140 80 M160 60 C160 73.33, 153.33 80, 140 80 M140 80 C108.23 80, 76.46 80, 20 80 M140 80 C110.71 80, 81.42 80, 20 80 M20 80 C6.67 80, 0 73.33, 0 60 M20 80 C6.67 80, 0 73.33, 0 60 M0 60 C0 48.67, 0 37.35, 0 20 M0 60 C0 44.17, 0 28.34, 0 20 M0 20 C0 6.67, 6.67 0, 20 0 M0 20 C0 6.67, 6.67 0, 20 0" stroke="#1e1e1e" stroke-width="1" fill="none"/></g><g transform="translate(40.193359375 733.9) rotate(0 49.806640625 16.099999999999994)"><text x="49.806640625" y="25.760546874999996" font-family="Helvetica, Segoe UI Emoji" font-size="28px" fill="#1e1e1e" text-anchor="middle" style="white-space: pre;" direction="ltr" dominant-baseline="alphabetic">model 1</text></g><g stroke-linecap="round" transform="translate(70 330) rotate(0 69 50)"><path d="M138 50 C138 52.01, 137.83 54.03, 137.5 56.03 C137.16 58.02, 136.66 60.02, 135.99 61.97 C135.33 63.92, 134.5 65.85, 133.52 67.73 C132.53 69.61, 131.38 71.46, 130.1 73.24 C128.81 75.01, 127.36 76.75, 125.79 78.4 C124.21 80.06, 122.49 81.65, 120.65 83.16 C118.81 84.66, 116.83 86.09, 114.76 87.43 C112.68 88.76, 110.48 90.01, 108.2 91.15 C105.91 92.29, 103.52 93.34, 101.07 94.27 C98.61 95.21, 96.06 96.04, 93.47 96.75 C90.88 97.46, 88.2 98.07, 85.51 98.55 C82.82 99.03, 80.07 99.39, 77.32 99.64 C74.56 99.88, 71.77 100, 69 100 C66.23 100, 63.44 99.88, 60.68 99.64 C57.93 99.39, 55.18 99.03, 52.49 98.55 C49.8 98.07, 47.12 97.46, 44.53 96.75 C41.94 96.04, 39.39 95.21, 36.93 94.27 C34.48 93.34, 32.09 92.29, 29.8 91.15 C27.52 90.01, 25.32 88.76, 23.24 87.43 C21.17 86.09, 19.19 84.66, 17.35 83.16 C15.51 81.65, 13.79 80.06, 12.21 78.4 C10.64 76.75, 9.19 75.01, 7.9 73.24 C6.62 71.46, 5.47 69.61, 4.48 67.73 C3.5 65.85, 2.67 63.92, 2.01 61.97 C1.34 60.02, 0.84 58.02, 0.5 56.03 C0.17 54.03, 0 52.01, 0 50 C0 47.99, 0.17 45.97, 0.5 43.97 C0.84 41.98, 1.34 39.98, 2.01 38.03 C2.67 36.08, 3.5 34.15, 4.48 32.27 C5.47 30.39, 6.62 28.54, 7.9 26.76 C9.19 24.99, 10.64 23.25, 12.21 21.6 C13.79 19.94, 15.51 18.35, 17.35 16.84 C19.19 15.34, 21.17 13.91, 23.24 12.57 C25.32 11.24, 27.52 9.99, 29.8 8.85 C32.09 7.71, 34.48 6.66, 36.93 5.73 C39.39 4.79, 41.94 3.96, 44.53 3.25 C47.12 2.54, 49.8 1.93, 52.49 1.45 C55.18 0.97, 57.93 0.61, 60.68 0.36 C63.44 0.12, 66.23 0, 69 0 C71.77 0, 74.56 0.12, 77.32 0.36 C80.07 0.61, 82.82 0.97, 85.51 1.45 C88.2 1.93, 90.88 2.54, 93.47 3.25 C96.06 3.96, 98.61 4.79, 101.07 5.73 C103.52 6.66, 105.91 7.71, 108.2 8.85 C110.48 9.99, 112.68 11.24, 114.76 12.57 C116.83 13.91, 118.81 15.34, 120.65 16.84 C122.49 18.35, 124.21 19.94, 125.79 21.6 C127.36 23.25, 128.81 24.99, 130.1 26.76 C131.38 28.54, 132.53 30.39, 133.52 32.27 C134.5 34.15, 135.33 36.08, 135.99 38.03 C136.66 39.98, 137.16 41.98, 137.5 43.97 C137.83 45.97, 138 47.99, 138 50" stroke="#e03131" stroke-width="2" fill="none"/></g><g transform="translate(106.96353834812822 357.1446609406726) rotate(0 32.24609375 23)"><text x="32.24609375" y="18.400390625" font-family="Helvetica, Segoe UI Emoji" font-size="20px" fill="#e03131" text-anchor="middle" style="white-space: pre;" direction="ltr" dominant-baseline="alphabetic">Trade</text><text x="32.24609375" y="41.400390625" font-family="Helvetica, Segoe UI Emoji" font-size="20px" fill="#e03131" text-anchor="middle" style="white-space: pre;" direction="ltr" dominant-baseline="alphabetic">Update</text></g><g stroke-linecap="round"><g transform="translate(150.00707271805788 271) rotate(0 -0.0035263492834474164 29.416499571886924)"><path d="M0 0 C0 9.81, -0.01 49.03, -0.01 58.83 M0 0 C0 9.81, -0.01 49.03, -0.01 58.83" stroke="#e03131" stroke-width="2" fill="none"/></g><g transform="translate(150.00707271805788 271) rotate(0 -0.0035263492834474164 29.416499571886924)"><path d="M-8.55 35.34 C-6.34 41.43, -4.13 47.51, -0.01 58.83 M-8.55 35.34 C-5.55 43.61, -2.54 51.88, -0.01 58.83" stroke="#e03131" stroke-width="2" fill="none"/></g><g transform="translate(150.00707271805788 271) rotate(0 -0.0035263492834474164 29.416499571886924)"><path d="M8.55 35.34 C6.33 41.43, 4.11 47.51, -0.01 58.83 M8.55 35.34 C5.54 43.61, 2.53 51.88, -0.01 58.83" stroke="#e03131" stroke-width="2" fill="none"/></g></g><mask/><g stroke-linecap="round" transform="translate(270 330) rotate(0 70 50)"><path d="M140 50 C140 52.01, 139.83 54.03, 139.49 56.03 C139.15 58.02, 138.64 60.02, 137.97 61.97 C137.29 63.92, 136.45 65.85, 135.45 67.73 C134.45 69.61, 133.29 71.46, 131.98 73.24 C130.67 75.01, 129.21 76.75, 127.61 78.4 C126.01 80.06, 124.26 81.65, 122.4 83.16 C120.53 84.66, 118.52 86.09, 116.42 87.43 C114.31 88.76, 112.08 90.01, 109.76 91.15 C107.45 92.29, 105.02 93.34, 102.53 94.27 C100.04 95.21, 97.45 96.04, 94.82 96.75 C92.19 97.46, 89.48 98.07, 86.75 98.55 C84.02 99.03, 81.23 99.39, 78.44 99.64 C75.65 99.88, 72.81 100, 70 100 C67.19 100, 64.35 99.88, 61.56 99.64 C58.77 99.39, 55.98 99.03, 53.25 98.55 C50.52 98.07, 47.81 97.46, 45.18 96.75 C42.55 96.04, 39.96 95.21, 37.47 94.27 C34.98 93.34, 32.55 92.29, 30.24 91.15 C27.92 90.01, 25.69 88.76, 23.58 87.43 C21.48 86.09, 19.47 84.66, 17.6 83.16 C15.74 81.65, 13.99 80.06, 12.39 78.4 C10.79 76.75, 9.33 75.01, 8.02 73.24 C6.71 71.46, 5.55 69.61, 4.55 67.73 C3.55 65.85, 2.71 63.92, 2.03 61.97 C1.36 60.02, 0.85 58.02, 0.51 56.03 C0.17 54.03, 0 52.01, 0 50 C0 47.99, 0.17 45.97, 0.51 43.97 C0.85 41.98, 1.36 39.98, 2.03 38.03 C2.71 36.08, 3.55 34.15, 4.55 32.27 C5.55 30.39, 6.71 28.54, 8.02 26.76 C9.33 24.99, 10.79 23.25, 12.39 21.6 C13.99 19.94, 15.74 18.35, 17.6 16.84 C19.47 15.34, 21.48 13.91, 23.58 12.57 C25.69 11.24, 27.92 9.99, 30.24 8.85 C32.55 7.71, 34.98 6.66, 37.47 5.73 C39.96 4.79, 42.55 3.96, 45.18 3.25 C47.81 2.54, 50.52 1.93, 53.25 1.45 C55.98 0.97, 58.77 0.61, 61.56 0.36 C64.35 0.12, 67.19 0, 70 0 C72.81 0, 75.65 0.12, 78.44 0.36 C81.23 0.61, 84.02 0.97, 86.75 1.45 C89.48 1.93, 92.19 2.54, 94.82 3.25 C97.45 3.96, 100.04 4.79, 102.53 5.73 C105.02 6.66, 107.45 7.71, 109.76 8.85 C112.08 9.99, 114.31 11.24, 116.42 12.57 C118.52 13.91, 120.53 15.34, 122.4 16.84 C124.26 18.35, 126.01 19.94, 127.61 21.6 C129.21 23.25, 130.67 24.99, 131.98 26.76 C133.29 28.54, 134.45 30.39, 135.45 32.27 C136.45 34.15, 137.29 36.08, 137.97 38.03 C138.64 39.98, 139.15 41.98, 139.49 43.97 C139.83 45.97, 140 47.99, 140 50" stroke="#e03131" stroke-width="2" fill="none"/></g><g transform="translate(307.75643156694167 357.1446609406726) rotate(0 32.24609375 23)"><text x="32.24609375" y="18.400390625" font-family="Helvetica, Segoe UI Emoji" font-size="20px" fill="#e03131" text-anchor="middle" style="white-space: pre;" direction="ltr" dominant-baseline="alphabetic">L2</text><text x="32.24609375" y="41.400390625" font-family="Helvetica, Segoe UI Emoji" font-size="20px" fill="#e03131" text-anchor="middle" style="white-space: pre;" direction="ltr" dominant-baseline="alphabetic">Update</text></g><g stroke-linecap="round"><g transform="translate(160.45828995676607 271) rotate(0 68.69735921791323 33.414374089706854)"><path d="M0 0 C22.9 11.14, 114.5 55.69, 137.39 66.83 M0 0 C22.9 11.14, 114.5 55.69, 137.39 66.83" stroke="#e03131" stroke-width="2" fill="none"/></g><g transform="translate(160.45828995676607 271) rotate(0 68.69735921791323 33.414374089706854)"><path d="M112.53 64.24 C117.63 64.77, 122.74 65.3, 137.39 66.83 M112.53 64.24 C121.21 65.15, 129.9 66.05, 137.39 66.83" stroke="#e03131" stroke-width="2" fill="none"/></g><g transform="translate(160.45828995676607 271) rotate(0 68.69735921791323 33.414374089706854)"><path d="M120.01 48.86 C123.58 52.55, 127.15 56.24, 137.39 66.83 M120.01 48.86 C126.08 55.14, 132.15 61.41, 137.39 66.83" stroke="#e03131" stroke-width="2" fill="none"/></g></g><mask/><g stroke-linecap="round"><g transform="translate(302.1613927037194 271) rotate(0 -65.0518276432725 31.61596453156654)"><path d="M0 0 C-21.68 10.54, -108.42 52.69, -130.1 63.23 M0 0 C-21.68 10.54, -108.42 52.69, -130.1 63.23" stroke="#e03131" stroke-width="2" fill="none"/></g><g transform="translate(302.1613927037194 271) rotate(0 -65.0518276432725 31.61596453156654)"><path d="M-112.71 45.27 C-118.11 50.85, -123.51 56.42, -130.1 63.23 M-112.71 45.27 C-119.1 51.87, -125.49 58.47, -130.1 63.23" stroke="#e03131" stroke-width="2" fill="none"/></g><g transform="translate(302.1613927037194 271) rotate(0 -65.0518276432725 31.61596453156654)"><path d="M-105.24 60.65 C-112.96 61.45, -120.67 62.25, -130.1 63.23 M-105.24 60.65 C-114.37 61.6, -123.51 62.55, -130.1 63.23" stroke="#e03131" stroke-width="2" fill="none"/></g></g><mask/><g stroke-linecap="round"><g transform="translate(308.41868148917274 263) rotate(0 9.45439985839181 32.27630044824044)"><path d="M0 0 C3.15 10.76, 15.76 53.79, 18.91 64.55 M0 0 C3.15 10.76, 15.76 53.79, 18.91 64.55" stroke="#e03131" stroke-width="2" fill="none"/></g><g transform="translate(308.41868148917274 263) rotate(0 9.45439985839181 32.27630044824044)"><path d="M4.1 44.41 C9.47 51.72, 14.85 59.03, 18.91 64.55 M4.1 44.41 C7.14 48.55, 10.19 52.7, 18.91 64.55" stroke="#e03131" stroke-width="2" fill="none"/></g><g transform="translate(308.41868148917274 263) rotate(0 9.45439985839181 32.27630044824044)"><path d="M20.51 39.6 C19.93 48.66, 19.35 57.71, 18.91 64.55 M20.51 39.6 C20.18 44.73, 19.85 49.87, 18.91 64.55" stroke="#e03131" stroke-width="2" fill="none"/></g></g><mask/><g stroke-linecap="round"><g transform="translate(125.99048728803194 432.28378528359815) rotate(0 -28.627069395209645 137.75423189529926)"><path d="M0 0 C-9.54 45.92, -47.71 229.59, -57.25 275.51 M0 0 C-9.54 45.92, -47.71 229.59, -57.25 275.51" stroke="#e03131" stroke-width="2" fill="none"/></g><g transform="translate(125.99048728803194 432.28378528359815) rotate(0 -28.627069395209645 137.75423189529926)"><path d="M-60.85 250.77 C-59.55 259.68, -58.26 268.59, -57.25 275.51 M-60.85 250.77 C-59.59 259.41, -58.34 268.06, -57.25 275.51" stroke="#e03131" stroke-width="2" fill="none"/></g><g transform="translate(125.99048728803194 432.28378528359815) rotate(0 -28.627069395209645 137.75423189529926)"><path d="M-44.1 254.25 C-48.84 261.9, -53.57 269.56, -57.25 275.51 M-44.1 254.25 C-48.7 261.68, -53.3 269.11, -57.25 275.51" stroke="#e03131" stroke-width="2" fill="none"/></g></g><mask/><g stroke-linecap="round"><g transform="translate(297.4474457671331 425.8971018408532) rotate(0 -94.60733868356459 141.5514490795734)"><path d="M0 0 C-31.54 47.18, -157.68 235.92, -189.21 283.1 M0 0 C-31.54 47.18, -157.68 235.92, -189.21 283.1" stroke="#e03131" stroke-width="2" fill="none"/></g><g transform="translate(297.4474457671331 425.8971018408532) rotate(0 -94.60733868356459 141.5514490795734)"><path d="M-183.27 258.82 C-184.78 264.98, -186.29 271.14, -189.21 283.1 M-183.27 258.82 C-184.67 264.54, -186.07 270.27, -189.21 283.1" stroke="#e03131" stroke-width="2" fill="none"/></g><g transform="translate(297.4474457671331 425.8971018408532) rotate(0 -94.60733868356459 141.5514490795734)"><path d="M-169.05 268.32 C-174.17 272.07, -179.28 275.82, -189.21 283.1 M-169.05 268.32 C-173.8 271.81, -178.56 275.29, -189.21 283.1" stroke="#e03131" stroke-width="2" fill="none"/></g></g><mask/><g stroke-linecap="round"><g transform="translate(159.72109137090547 430.809542925557) rotate(0 44.639454314547265 39.083504550356224)"><path d="M0 0 C14.88 13.03, 74.4 65.14, 89.28 78.17 M0 0 C14.88 13.03, 74.4 65.14, 89.28 78.17" stroke="#e03131" stroke-width="2" fill="none"/></g><g transform="translate(159.72109137090547 430.809542925557) rotate(0 44.639454314547265 39.083504550356224)"><path d="M65.97 69.13 C72.62 71.7, 79.27 74.28, 89.28 78.17 M65.97 69.13 C71.98 71.46, 77.99 73.79, 89.28 78.17" stroke="#e03131" stroke-width="2" fill="none"/></g><g transform="translate(159.72109137090547 430.809542925557) rotate(0 44.639454314547265 39.083504550356224)"><path d="M77.24 56.26 C80.67 62.51, 84.11 68.76, 89.28 78.17 M77.24 56.26 C80.34 61.91, 83.45 67.56, 89.28 78.17" stroke="#e03131" stroke-width="2" fill="none"/></g></g><mask/><g stroke-linecap="round"><g transform="translate(326.0095636132073 430.0000818506138) rotate(0 -23.641925360462096 29.4999590746931)"><path d="M0 0 C-7.88 9.83, -39.4 49.17, -47.28 59 M0 0 C-7.88 9.83, -39.4 49.17, -47.28 59" stroke="#e03131" stroke-width="2" fill="none"/></g><g transform="translate(326.0095636132073 430.0000818506138) rotate(0 -23.641925360462096 29.4999590746931)"><path d="M-39.26 35.32 C-42.24 44.1, -45.21 52.89, -47.28 59 M-39.26 35.32 C-42.15 43.83, -45.03 52.33, -47.28 59" stroke="#e03131" stroke-width="2" fill="none"/></g><g transform="translate(326.0095636132073 430.0000818506138) rotate(0 -23.641925360462096 29.4999590746931)"><path d="M-25.92 46.02 C-33.84 50.83, -41.77 55.65, -47.28 59 M-25.92 46.02 C-33.59 50.68, -41.27 55.34, -47.28 59" stroke="#e03131" stroke-width="2" fill="none"/></g></g><mask/><g stroke-linecap="round" transform="translate(690 690) rotate(0 101.5 59.5)"><path d="M29.75 0 C63.83 0, 97.9 0, 173.25 0 C193.08 0, 203 9.92, 203 29.75 C203 45.98, 203 62.21, 203 89.25 C203 109.08, 193.08 119, 173.25 119 C129.75 119, 86.26 119, 29.75 119 C9.92 119, 0 109.08, 0 89.25 C0 65.87, 0 42.49, 0 29.75 C0 9.92, 9.92 0, 29.75 0" stroke="none" stroke-width="0" fill="#eebefa"/><path d="M29.75 0 C64.36 0, 98.97 0, 173.25 0 M29.75 0 C81.25 0, 132.76 0, 173.25 0 M173.25 0 C193.08 0, 203 9.92, 203 29.75 M173.25 0 C193.08 0, 203 9.92, 203 29.75 M203 29.75 C203 42.43, 203 55.1, 203 89.25 M203 29.75 C203 47.59, 203 65.43, 203 89.25 M203 89.25 C203 109.08, 193.08 119, 173.25 119 M203 89.25 C203 109.08, 193.08 119, 173.25 119 M173.25 119 C140.7 119, 108.14 119, 29.75 119 M173.25 119 C117.64 119, 62.04 119, 29.75 119 M29.75 119 C9.92 119, 0 109.08, 0 89.25 M29.75 119 C9.92 119, 0 109.08, 0 89.25 M0 89.25 C0 71.02, 0 52.8, 0 29.75 M0 89.25 C0 66.07, 0 42.88, 0 29.75 M0 29.75 C0 9.92, 9.92 0, 29.75 0 M0 29.75 C0 9.92, 9.92 0, 29.75 0" stroke="#1e1e1e" stroke-width="2" fill="none"/></g><a href="obsidian://open?vault=Trading&amp;file=Flovr%2FOverseer"><g transform="translate(733.927734375 733.4) rotate(0 57.572265625 16.099999999999994)"><text x="57.572265625" y="25.760546874999996" font-family="Helvetica, Segoe UI Emoji" font-size="28px" fill="#1e1e1e" text-anchor="middle" style="white-space: pre;" direction="ltr" dominant-baseline="alphabetic">Overseer</text></g></a><g stroke-linecap="round"><g transform="translate(133.74187631657753 95) rotate(0 1.2288443081345122 26.699385981405925)"><path d="M0 0 C0.41 8.9, 2.05 44.5, 2.46 53.4 M0 0 C0.41 8.9, 2.05 44.5, 2.46 53.4" stroke="#2f9e44" stroke-width="2" fill="none"/></g><g transform="translate(133.74187631657753 95) rotate(0 1.2288443081345122 26.699385981405925)"><path d="M-7.16 30.32 C-4.94 35.65, -2.72 40.98, 2.46 53.4 M-7.16 30.32 C-4.52 36.67, -1.87 43.02, 2.46 53.4" stroke="#2f9e44" stroke-width="2" fill="none"/></g><g transform="translate(133.74187631657753 95) rotate(0 1.2288443081345122 26.699385981405925)"><path d="M9.92 29.54 C8.2 35.05, 6.47 40.55, 2.46 53.4 M9.92 29.54 C7.87 36.1, 5.81 42.67, 2.46 53.4" stroke="#2f9e44" stroke-width="2" fill="none"/></g></g><mask/><g stroke-linecap="round" transform="translate(90 10) rotate(0 60 40)"><path d="M20 0 C36.36 0, 52.73 0, 100 0 M20 0 C45.32 0, 70.63 0, 100 0 M100 0 C113.33 0, 120 6.67, 120 20 M100 0 C113.33 0, 120 6.67, 120 20 M120 20 C120 33.02, 120 46.05, 120 60 M120 20 C120 34.05, 120 48.11, 120 60 M120 60 C120 73.33, 113.33 80, 100 80 M120 60 C120 73.33, 113.33 80, 100 80 M100 80 C82.54 80, 65.07 80, 20 80 M100 80 C82.74 80, 65.49 80, 20 80 M20 80 C6.67 80, 0 73.33, 0 60 M20 80 C6.67 80, 0 73.33, 0 60 M0 60 C0 51.1, 0 42.21, 0 20 M0 60 C0 51.89, 0 43.78, 0 20 M0 20 C0 6.67, 6.67 0, 20 0 M0 20 C0 6.67, 6.67 0, 20 0" stroke="#2f9e44" stroke-width="2" fill="none"/></g><g transform="translate(112.6416015625 33.89999999999998) rotate(0 37.3583984375 16.099999999999994)"><text x="37.3583984375" y="25.760546874999996" font-family="Helvetica, Segoe UI Emoji" font-size="28px" fill="#2f9e44" text-anchor="middle" style="white-space: pre;" direction="ltr" dominant-baseline="alphabetic">exch1</text></g><g stroke-linecap="round" transform="translate(950 650) rotate(0 86.3125 52.6875)"><path d="M172.62 52.69 C172.62 54.65, 172.44 56.63, 172.08 58.59 C171.72 60.54, 171.18 62.49, 170.46 64.41 C169.74 66.33, 168.85 68.23, 167.78 70.09 C166.72 71.95, 165.48 73.78, 164.08 75.55 C162.68 77.32, 161.11 79.05, 159.4 80.72 C157.68 82.38, 155.8 84, 153.79 85.54 C151.79 87.07, 149.62 88.55, 147.34 89.94 C145.07 91.33, 142.65 92.65, 140.13 93.88 C137.61 95.11, 134.96 96.25, 132.23 97.3 C129.51 98.35, 126.66 99.3, 123.76 100.16 C120.86 101.01, 117.86 101.77, 114.82 102.42 C111.78 103.07, 108.66 103.62, 105.52 104.05 C102.38 104.49, 99.18 104.82, 95.98 105.04 C92.78 105.26, 89.53 105.38, 86.31 105.38 C83.09 105.38, 79.85 105.26, 76.65 105.04 C73.45 104.82, 70.25 104.49, 67.11 104.05 C63.97 103.62, 60.85 103.07, 57.81 102.42 C54.76 101.77, 51.77 101.01, 48.86 100.16 C45.96 99.3, 43.12 98.35, 40.39 97.3 C37.66 96.25, 35.02 95.11, 32.5 93.88 C29.98 92.65, 27.56 91.33, 25.28 89.94 C23 88.55, 20.84 87.07, 18.83 85.54 C16.82 84, 14.94 82.38, 13.23 80.72 C11.52 79.05, 9.95 77.32, 8.55 75.55 C7.15 73.78, 5.91 71.95, 4.84 70.09 C3.78 68.23, 2.88 66.33, 2.16 64.41 C1.45 62.49, 0.9 60.54, 0.54 58.59 C0.18 56.63, 0 54.65, 0 52.69 C0 50.72, 0.18 48.74, 0.54 46.79 C0.9 44.83, 1.45 42.88, 2.16 40.96 C2.88 39.05, 3.78 37.14, 4.84 35.29 C5.91 33.43, 7.15 31.6, 8.55 29.83 C9.95 28.06, 11.52 26.32, 13.23 24.66 C14.94 22.99, 16.82 21.37, 18.83 19.84 C20.84 18.3, 23 16.82, 25.28 15.43 C27.56 14.04, 29.98 12.72, 32.5 11.49 C35.02 10.27, 37.66 9.12, 40.39 8.08 C43.12 7.03, 45.96 6.07, 48.86 5.22 C51.77 4.36, 54.76 3.61, 57.81 2.96 C60.85 2.31, 63.97 1.76, 67.11 1.32 C70.25 0.88, 73.45 0.55, 76.65 0.33 C79.85 0.11, 83.09 0, 86.31 0 C89.53 0, 92.78 0.11, 95.98 0.33 C99.18 0.55, 102.38 0.88, 105.52 1.32 C108.66 1.76, 111.78 2.31, 114.82 2.96 C117.86 3.61, 120.86 4.36, 123.76 5.22 C126.66 6.07, 129.51 7.03, 132.23 8.08 C134.96 9.12, 137.61 10.27, 140.13 11.49 C142.65 12.72, 145.07 14.04, 147.34 15.43 C149.62 16.82, 151.79 18.3, 153.79 19.84 C155.8 21.37, 157.68 22.99, 159.4 24.66 C161.11 26.32, 162.68 28.06, 164.08 29.83 C165.48 31.6, 166.72 33.43, 167.78 35.29 C168.85 37.14, 169.74 39.05, 170.46 40.96 C171.18 42.88, 171.72 44.83, 172.08 46.79 C172.44 48.74, 172.53 51.7, 172.62 52.69 C172.72 53.67, 172.72 51.7, 172.62 52.69" stroke="#e03131" stroke-width="2" fill="none"/></g><g transform="translate(1007.3701896988362 684.5318114662339) rotate(0 28.91015625 18.400000000000006)"><text x="28.91015625" y="14.720312499999999" font-family="Helvetica, Segoe UI Emoji" font-size="16px" fill="#e03131" text-anchor="middle" style="white-space: pre;" direction="ltr" dominant-baseline="alphabetic">Balance</text><text x="28.91015625" y="33.1203125" font-family="Helvetica, Segoe UI Emoji" font-size="16px" fill="#e03131" text-anchor="middle" style="white-space: pre;" direction="ltr" dominant-baseline="alphabetic">Update</text></g><g stroke-linecap="round" transform="translate(950 510) rotate(0 80 64)"><path d="M160 64 C160 66.39, 159.83 68.79, 159.5 71.17 C159.16 73.54, 158.66 75.91, 157.99 78.24 C157.33 80.57, 156.5 82.88, 155.51 85.14 C154.52 87.39, 153.37 89.62, 152.08 91.77 C150.78 93.92, 149.33 96.03, 147.74 98.05 C146.15 100.07, 144.41 102.04, 142.55 103.9 C140.68 105.77, 138.68 107.57, 136.57 109.25 C134.46 110.94, 132.21 112.55, 129.88 114.04 C127.54 115.53, 125.09 116.92, 122.56 118.19 C120.03 119.46, 117.4 120.63, 114.71 121.66 C112.02 122.7, 109.24 123.62, 106.42 124.41 C103.6 125.2, 100.71 125.86, 97.8 126.4 C94.89 126.93, 91.92 127.33, 88.96 127.6 C85.99 127.87, 82.99 128, 80 128 C77.01 128, 74.01 127.87, 71.04 127.6 C68.08 127.33, 65.11 126.93, 62.2 126.4 C59.29 125.86, 56.4 125.2, 53.58 124.41 C50.76 123.62, 47.98 122.7, 45.29 121.66 C42.6 120.63, 39.97 119.46, 37.44 118.19 C34.91 116.92, 32.46 115.53, 30.12 114.04 C27.79 112.55, 25.54 110.94, 23.43 109.25 C21.32 107.57, 19.32 105.77, 17.45 103.9 C15.59 102.04, 13.85 100.07, 12.26 98.05 C10.67 96.03, 9.22 93.92, 7.92 91.77 C6.63 89.62, 5.48 87.39, 4.49 85.14 C3.5 82.88, 2.67 80.57, 2.01 78.24 C1.34 75.91, 0.84 73.54, 0.5 71.17 C0.17 68.79, 0 66.39, 0 64 C0 61.61, 0.17 59.21, 0.5 56.83 C0.84 54.46, 1.34 52.09, 2.01 49.76 C2.67 47.43, 3.5 45.12, 4.49 42.86 C5.48 40.61, 6.63 38.38, 7.92 36.23 C9.22 34.08, 10.67 31.97, 12.26 29.95 C13.85 27.93, 15.59 25.96, 17.45 24.1 C19.32 22.23, 21.32 20.43, 23.43 18.75 C25.54 17.06, 27.79 15.45, 30.12 13.96 C32.46 12.47, 34.91 11.08, 37.44 9.81 C39.97 8.54, 42.6 7.37, 45.29 6.34 C47.98 5.3, 50.76 4.38, 53.58 3.59 C56.4 2.8, 59.29 2.14, 62.2 1.6 C65.11 1.07, 68.08 0.67, 71.04 0.4 C74.01 0.13, 77.01 0, 80 0 C82.99 0, 85.99 0.13, 88.96 0.4 C91.92 0.67, 94.89 1.07, 97.8 1.6 C100.71 2.14, 103.6 2.8, 106.42 3.59 C109.24 4.38, 112.02 5.3, 114.71 6.34 C117.4 7.37, 120.03 8.54, 122.56 9.81 C125.09 11.08, 127.54 12.47, 129.88 13.96 C132.21 15.45, 134.46 17.06, 136.57 18.75 C138.68 20.43, 140.68 22.23, 142.55 24.1 C144.41 25.96, 146.15 27.93, 147.74 29.95 C149.33 31.97, 150.78 34.08, 152.08 36.23 C153.37 38.38, 154.52 40.61, 155.51 42.86 C156.5 45.12, 157.33 47.43, 157.99 49.76 C158.66 52.09, 159.16 54.46, 159.5 56.83 C159.83 59.21, 159.92 62.81, 160 64 C160.08 65.19, 160.08 62.81, 160 64" stroke="#e03131" stroke-width="2" fill="none"/></g><g transform="translate(979.6853637550762 555.845166004061) rotate(0 50.24609375 18.400000000000006)"><text x="50.24609375" y="14.720312499999999" font-family="Helvetica, Segoe UI Emoji" font-size="16px" fill="#e03131" text-anchor="middle" style="white-space: pre;" direction="ltr" dominant-baseline="alphabetic">OrderRequest</text><text x="50.24609375" y="33.1203125" font-family="Helvetica, Segoe UI Emoji" font-size="16px" fill="#e03131" text-anchor="middle" style="white-space: pre;" direction="ltr" dominant-baseline="alphabetic">Response</text></g><g stroke-linecap="round" transform="translate(950 770) rotate(0 73.1875 53.9375)"><path d="M146.38 53.94 C146.38 56.1, 146.2 58.29, 145.84 60.44 C145.49 62.59, 144.95 64.74, 144.25 66.85 C143.54 68.95, 142.66 71.04, 141.62 73.06 C140.58 75.09, 139.36 77.08, 137.99 79 C136.63 80.92, 135.09 82.79, 133.42 84.58 C131.75 86.36, 129.92 88.08, 127.97 89.7 C126.02 91.33, 123.92 92.87, 121.72 94.31 C119.52 95.75, 117.18 97.1, 114.76 98.33 C112.34 99.56, 109.8 100.69, 107.2 101.7 C104.6 102.7, 101.89 103.6, 99.14 104.37 C96.39 105.14, 93.56 105.79, 90.7 106.31 C87.85 106.83, 84.93 107.22, 82.01 107.48 C79.09 107.74, 76.13 107.87, 73.19 107.87 C70.25 107.87, 67.28 107.74, 64.37 107.48 C61.45 107.22, 58.53 106.83, 55.67 106.31 C52.82 105.79, 49.98 105.14, 47.23 104.37 C44.49 103.6, 41.78 102.7, 39.18 101.7 C36.57 100.69, 34.03 99.56, 31.61 98.33 C29.19 97.1, 26.86 95.75, 24.66 94.31 C22.45 92.87, 20.36 91.33, 18.41 89.7 C16.46 88.08, 14.63 86.36, 12.96 84.58 C11.28 82.79, 9.75 80.92, 8.38 79 C7.02 77.08, 5.8 75.09, 4.76 73.06 C3.71 71.04, 2.83 68.95, 2.13 66.85 C1.42 64.74, 0.89 62.59, 0.53 60.44 C0.18 58.29, 0 56.1, 0 53.94 C0 51.77, 0.18 49.59, 0.53 47.44 C0.89 45.28, 1.42 43.13, 2.13 41.03 C2.83 38.93, 3.71 36.84, 4.76 34.81 C5.8 32.78, 7.02 30.79, 8.38 28.87 C9.75 26.95, 11.28 25.08, 12.96 23.3 C14.63 21.51, 16.46 19.79, 18.41 18.17 C20.36 16.55, 22.45 15, 24.66 13.56 C26.86 12.13, 29.19 10.78, 31.61 9.55 C34.03 8.32, 36.57 7.19, 39.18 6.18 C41.78 5.17, 44.49 4.27, 47.23 3.51 C49.98 2.74, 52.82 2.09, 55.67 1.57 C58.53 1.05, 61.45 0.65, 64.37 0.39 C67.28 0.13, 70.25 0, 73.19 0 C76.13 0, 79.09 0.13, 82.01 0.39 C84.93 0.65, 87.85 1.05, 90.7 1.57 C93.56 2.09, 96.39 2.74, 99.14 3.51 C101.89 4.27, 104.6 5.17, 107.2 6.18 C109.8 7.19, 112.34 8.32, 114.76 9.55 C117.18 10.78, 119.52 12.13, 121.72 13.56 C123.92 15, 126.02 16.55, 127.97 18.17 C129.92 19.79, 131.75 21.51, 133.42 23.3 C135.09 25.08, 136.63 26.95, 137.99 28.87 C139.36 30.79, 140.58 32.78, 141.62 34.81 C142.66 36.84, 143.54 38.93, 144.25 41.03 C144.95 43.13, 145.49 45.28, 145.84 47.44 C146.2 49.59, 146.38 51.77, 146.38 53.94" stroke="#e03131" stroke-width="2" fill="none"/></g><g transform="translate(997.6392474519096 805.3979279897505) rotate(0 25.796875 18.400000000000006)"><text x="25.796875" y="14.720312499999999" font-family="Helvetica, Segoe UI Emoji" font-size="16px" fill="#e03131" text-anchor="middle" style="white-space: pre;" direction="ltr" dominant-baseline="alphabetic">Order</text><text x="25.796875" y="33.1203125" font-family="Helvetica, Segoe UI Emoji" font-size="16px" fill="#e03131" text-anchor="middle" style="white-space: pre;" direction="ltr" dominant-baseline="alphabetic">Update</text></g><g stroke-linecap="round" transform="translate(950 890) rotate(0 87.5625 50.8125)"><path d="M175.13 50.81 C175.13 52.71, 174.94 54.62, 174.57 56.5 C174.21 58.39, 173.66 60.27, 172.93 62.12 C172.2 63.97, 171.29 65.8, 170.21 67.59 C169.13 69.38, 167.87 71.15, 166.45 72.86 C165.04 74.57, 163.44 76.24, 161.7 77.85 C159.97 79.45, 158.06 81.01, 156.02 82.49 C153.98 83.98, 151.79 85.4, 149.48 86.74 C147.17 88.08, 144.71 89.36, 142.16 90.54 C139.6 91.72, 136.92 92.83, 134.15 93.84 C131.38 94.85, 128.5 95.77, 125.55 96.59 C122.61 97.42, 119.57 98.15, 116.48 98.77 C113.4 99.4, 110.23 99.93, 107.05 100.35 C103.86 100.77, 100.61 101.09, 97.37 101.31 C94.12 101.52, 90.83 101.62, 87.56 101.62 C84.29 101.62, 81.01 101.52, 77.76 101.31 C74.51 101.09, 71.26 100.77, 68.08 100.35 C64.89 99.93, 61.73 99.4, 58.64 98.77 C55.56 98.15, 52.51 97.42, 49.57 96.59 C46.63 95.77, 43.74 94.85, 40.98 93.84 C38.21 92.83, 35.52 91.72, 32.97 90.54 C30.41 89.36, 27.96 88.08, 25.65 86.74 C23.34 85.4, 21.14 83.98, 19.1 82.49 C17.07 81.01, 15.16 79.45, 13.42 77.85 C11.68 76.24, 10.09 74.57, 8.67 72.86 C7.25 71.15, 5.99 69.38, 4.91 67.59 C3.83 65.8, 2.92 63.97, 2.2 62.12 C1.47 60.27, 0.92 58.39, 0.55 56.5 C0.18 54.62, 0 52.71, 0 50.81 C0 48.92, 0.18 47.01, 0.55 45.12 C0.92 43.24, 1.47 41.35, 2.2 39.51 C2.92 37.66, 3.83 35.82, 4.91 34.03 C5.99 32.24, 7.25 30.47, 8.67 28.77 C10.09 27.06, 11.68 25.38, 13.42 23.78 C15.16 22.17, 17.07 20.61, 19.1 19.13 C21.14 17.65, 23.34 16.22, 25.65 14.88 C27.96 13.54, 30.41 12.27, 32.97 11.09 C35.52 9.9, 38.21 8.8, 40.98 7.79 C43.74 6.78, 46.63 5.85, 49.57 5.03 C52.51 4.21, 55.56 3.48, 58.64 2.85 C61.73 2.23, 64.89 1.7, 68.08 1.27 C71.26 0.85, 74.51 0.53, 77.76 0.32 C81.01 0.11, 84.29 0, 87.56 0 C90.83 0, 94.12 0.11, 97.37 0.32 C100.61 0.53, 103.86 0.85, 107.05 1.27 C110.23 1.7, 113.4 2.23, 116.48 2.85 C119.57 3.48, 122.61 4.21, 125.55 5.03 C128.5 5.85, 131.38 6.78, 134.15 7.79 C136.92 8.8, 139.6 9.9, 142.16 11.09 C144.71 12.27, 147.17 13.54, 149.48 14.88 C151.79 16.22, 153.98 17.65, 156.02 19.13 C158.06 20.61, 159.97 22.17, 161.7 23.78 C163.44 25.38, 165.04 27.06, 166.45 28.77 C167.87 30.47, 169.13 32.24, 170.21 34.03 C171.29 35.82, 172.2 37.66, 172.93 39.51 C173.66 41.35, 174.21 43.24, 174.57 45.12 C174.94 47.01, 175.03 49.86, 175.13 50.81 C175.22 51.76, 175.22 49.86, 175.13 50.81" stroke="#e03131" stroke-width="2" fill="none"/></g><g transform="translate(982.0644312223529 931.6826366809585) rotate(0 55.58203125 9.199999999999989)"><text x="55.58203125" y="14.720312499999999" font-family="Helvetica, Segoe UI Emoji" font-size="16px" fill="#e03131" text-anchor="middle" style="white-space: pre;" direction="ltr" dominant-baseline="alphabetic">OrderExecution</text></g><g stroke-linecap="round" transform="translate(910 370) rotate(0 99.625 54.9375)"><path d="M199.25 54.94 C199.25 56.85, 199.07 58.78, 198.7 60.68 C198.34 62.58, 197.79 64.49, 197.07 66.36 C196.35 68.23, 195.45 70.09, 194.37 71.91 C193.3 73.73, 192.05 75.53, 190.64 77.28 C189.23 79.03, 187.64 80.75, 185.9 82.41 C184.17 84.06, 182.26 85.68, 180.22 87.23 C178.18 88.78, 175.98 90.28, 173.66 91.7 C171.34 93.12, 168.87 94.48, 166.29 95.76 C163.71 97.04, 160.99 98.26, 158.18 99.38 C155.37 100.51, 152.44 101.56, 149.44 102.51 C146.43 103.47, 143.32 104.35, 140.15 105.13 C136.98 105.9, 133.71 106.59, 130.41 107.19 C127.11 107.78, 123.73 108.28, 120.34 108.67 C116.94 109.07, 113.49 109.37, 110.04 109.57 C106.59 109.77, 103.1 109.88, 99.63 109.88 C96.15 109.88, 92.66 109.77, 89.21 109.57 C85.76 109.37, 82.31 109.07, 78.91 108.67 C75.52 108.28, 72.14 107.78, 68.84 107.19 C65.54 106.59, 62.27 105.9, 59.1 105.13 C55.93 104.35, 52.82 103.47, 49.81 102.51 C46.81 101.56, 43.88 100.51, 41.07 99.38 C38.26 98.26, 35.54 97.04, 32.96 95.76 C30.38 94.48, 27.91 93.12, 25.59 91.7 C23.27 90.28, 21.07 88.78, 19.03 87.23 C16.99 85.68, 15.08 84.06, 13.35 82.41 C11.61 80.75, 10.02 79.03, 8.61 77.28 C7.2 75.53, 5.95 73.73, 4.88 71.91 C3.8 70.09, 2.9 68.23, 2.18 66.36 C1.46 64.49, 0.91 62.58, 0.55 60.68 C0.18 58.78, 0 56.85, 0 54.94 C0 53.02, 0.18 51.1, 0.55 49.19 C0.91 47.29, 1.46 45.39, 2.18 43.52 C2.9 41.64, 3.8 39.78, 4.88 37.96 C5.95 36.14, 7.2 34.34, 8.61 32.59 C10.02 30.84, 11.61 29.13, 13.35 27.47 C15.08 25.81, 16.99 24.19, 19.03 22.65 C21.07 21.1, 23.27 19.6, 25.59 18.18 C27.91 16.75, 30.38 15.39, 32.96 14.11 C35.54 12.83, 38.26 11.62, 41.07 10.49 C43.88 9.37, 46.81 8.32, 49.81 7.36 C52.82 6.4, 55.93 5.53, 59.1 4.75 C62.27 3.97, 65.54 3.28, 68.84 2.69 C72.14 2.1, 75.52 1.6, 78.91 1.2 C82.31 0.8, 85.76 0.5, 89.21 0.3 C92.66 0.1, 96.15 0, 99.62 0 C103.1 0, 106.59 0.1, 110.04 0.3 C113.49 0.5, 116.94 0.8, 120.34 1.2 C123.73 1.6, 127.11 2.1, 130.41 2.69 C133.71 3.28, 136.98 3.97, 140.15 4.75 C143.32 5.53, 146.43 6.4, 149.44 7.36 C152.44 8.32, 155.37 9.37, 158.18 10.49 C160.99 11.62, 163.71 12.83, 166.29 14.11 C168.87 15.39, 171.34 16.75, 173.66 18.18 C175.98 19.6, 178.18 21.1, 180.22 22.65 C182.26 24.19, 184.17 25.81, 185.9 27.47 C187.64 29.13, 189.23 30.84, 190.64 32.59 C192.05 34.34, 193.3 36.14, 194.37 37.96 C195.45 39.78, 196.35 41.64, 197.07 43.52 C197.79 45.39, 198.34 47.29, 198.7 49.19 C199.07 51.1, 199.16 53.98, 199.25 54.94 C199.34 55.89, 199.34 53.98, 199.25 54.94" stroke="#e03131" stroke-width="2" fill="none"/></g><g transform="translate(946.8718697367901 413.590821208564) rotate(0 62.8076171875 11.500000000000004)"><text x="62.8076171875" y="18.400390625" font-family="Helvetica, Segoe UI Emoji" font-size="20px" fill="#e03131" text-anchor="middle" style="white-space: pre;" direction="ltr" dominant-baseline="alphabetic">OrderRequest</text></g><g stroke-linecap="round" transform="translate(270 10) rotate(0 53.5 40)"><path d="M20 0 C44.07 0, 68.14 0, 87 0 M20 0 C35.71 0, 51.42 0, 87 0 M87 0 C100.33 0, 107 6.67, 107 20 M87 0 C100.33 0, 107 6.67, 107 20 M107 20 C107 29.31, 107 38.61, 107 60 M107 20 C107 32.59, 107 45.17, 107 60 M107 60 C107 73.33, 100.33 80, 87 80 M107 60 C107 73.33, 100.33 80, 87 80 M87 80 C66.93 80, 46.86 80, 20 80 M87 80 C69.93 80, 52.86 80, 20 80 M20 80 C6.67 80, 0 73.33, 0 60 M20 80 C6.67 80, 0 73.33, 0 60 M0 60 C0 46.7, 0 33.4, 0 20 M0 60 C0 44.72, 0 29.44, 0 20 M0 20 C0 6.67, 6.67 0, 20 0 M0 20 C0 6.67, 6.67 0, 20 0" stroke="#2f9e44" stroke-width="2" fill="none"/></g><g transform="translate(286.1416015625 33.89999999999998) rotate(0 37.3583984375 16.099999999999994)"><text x="37.3583984375" y="25.760546874999996" font-family="Helvetica, Segoe UI Emoji" font-size="28px" fill="#2f9e44" text-anchor="middle" style="white-space: pre;" direction="ltr" dominant-baseline="alphabetic">exch2</text></g><g stroke-linecap="round" transform="translate(250 150) rotate(0 70 60)"><path d="M30 0 C58.3 0, 86.6 0, 110 0 C130 0, 140 10, 140 30 C140 51.98, 140 73.96, 140 90 C140 110, 130 120, 110 120 C89.55 120, 69.1 120, 30 120 C10 120, 0 110, 0 90 C0 73.33, 0 56.65, 0 30 C0 10, 10 0, 30 0" stroke="none" stroke-width="0" fill="#b2f2bb"/><path d="M30 0 C53.58 0, 77.17 0, 110 0 M30 0 C48.96 0, 67.91 0, 110 0 M110 0 C130 0, 140 10, 140 30 M110 0 C130 0, 140 10, 140 30 M140 30 C140 46.61, 140 63.22, 140 90 M140 30 C140 48.77, 140 67.53, 140 90 M140 90 C140 110, 130 120, 110 120 M140 90 C140 110, 130 120, 110 120 M110 120 C87.4 120, 64.8 120, 30 120 M110 120 C93.57 120, 77.15 120, 30 120 M30 120 C10 120, 0 110, 0 90 M30 120 C10 120, 0 110, 0 90 M0 90 C0 75.66, 0 61.32, 0 30 M0 90 C0 66.47, 0 42.94, 0 30 M0 30 C0 10, 10 0, 30 0 M0 30 C0 10, 10 0, 30 0" stroke="#1e1e1e" stroke-width="1" fill="none"/></g><g transform="translate(268.3154296875 187) rotate(0 51.6845703125 23)"><text x="51.6845703125" y="18.400390625" font-family="Helvetica, Segoe UI Emoji" font-size="20px" fill="#1e1e1e" text-anchor="middle" style="white-space: pre;" direction="ltr" dominant-baseline="alphabetic">MarketData</text><text x="51.6845703125" y="41.400390625" font-family="Helvetica, Segoe UI Emoji" font-size="20px" fill="#1e1e1e" text-anchor="middle" style="white-space: pre;" direction="ltr" dominant-baseline="alphabetic">Handler</text></g><g stroke-linecap="round"><g transform="translate(330.8837727779336 91) rotate(0 0.5588760435557845 29)"><path d="M0 0 C0.19 9.67, 0.93 48.33, 1.12 58 M0 0 C0.19 9.67, 0.93 48.33, 1.12 58" stroke="#2f9e44" stroke-width="2" fill="none"/></g><g transform="translate(330.8837727779336 91) rotate(0 0.5588760435557845 29)"><path d="M-7.88 34.68 C-6.06 39.41, -4.23 44.15, 1.12 58 M-7.88 34.68 C-5.03 42.06, -2.18 49.45, 1.12 58" stroke="#2f9e44" stroke-width="2" fill="none"/></g><g transform="translate(330.8837727779336 91) rotate(0 0.5588760435557845 29)"><path d="M9.21 34.35 C7.57 39.15, 5.93 43.95, 1.12 58 M9.21 34.35 C6.65 41.84, 4.09 49.33, 1.12 58" stroke="#2f9e44" stroke-width="2" fill="none"/></g></g><mask/><g stroke-linecap="round" transform="translate(230 590) rotate(0 90 130)"><path d="M0 0 C38.53 0, 77.06 0, 180 0 M0 0 C50.4 0, 100.81 0, 180 0 M180 0 C180 89.62, 180 179.25, 180 260 M180 0 C180 59.23, 180 118.45, 180 260 M180 260 C142.95 260, 105.91 260, 0 260 M180 260 C120.69 260, 61.37 260, 0 260 M0 260 C0 201.24, 0 142.49, 0 0 M0 260 C0 173.16, 0 86.33, 0 0" stroke="#1971c2" stroke-width="2" fill="none"/></g><g transform="translate(243.7451171875 595) rotate(0 76.2548828125 16.099999999999994)"><text x="76.2548828125" y="25.760546874999996" font-family="Helvetica, Segoe UI Emoji" font-size="28px" fill="#1971c2" text-anchor="middle" style="white-space: pre;" direction="ltr" dominant-baseline="alphabetic">OrderCache</text></g><g stroke-linecap="round" transform="translate(230 650) rotate(0 90 21.099999999999994)"><path d="M0 0 C44.39 0, 88.78 0, 180 0 M0 0 C60.17 0, 120.34 0, 180 0 M180 0 C180 13.46, 180 26.91, 180 42.2 M180 0 C180 10.56, 180 21.13, 180 42.2 M180 42.2 C123.15 42.2, 66.31 42.2, 0 42.2 M180 42.2 C125.63 42.2, 71.25 42.2, 0 42.2 M0 42.2 C0 30.72, 0 19.24, 0 0 M0 42.2 C0 32.57, 0 22.94, 0 0" stroke="#1971c2" stroke-width="2" fill="none"/></g><g transform="translate(283.4345703125 655) rotate(0 36.5654296875 16.099999999999994)"><text x="36.5654296875" y="25.760546874999996" font-family="Helvetica, Segoe UI Emoji" font-size="28px" fill="#1971c2" text-anchor="middle" style="white-space: pre;" direction="ltr" dominant-baseline="alphabetic">OID 1</text></g><g stroke-linecap="round" transform="translate(230 690) rotate(0 90 21.099999999999994)"><path d="M0 0 C45.75 0, 91.5 0, 180 0 M0 0 C55.61 0, 111.21 0, 180 0 M180 0 C180 16.57, 180 33.13, 180 42.2 M180 0 C180 13.69, 180 27.39, 180 42.2 M180 42.2 C109.31 42.2, 38.63 42.2, 0 42.2 M180 42.2 C142.52 42.2, 105.04 42.2, 0 42.2 M0 42.2 C0 32.17, 0 22.14, 0 0 M0 42.2 C0 26.36, 0 10.52, 0 0" stroke="#1971c2" stroke-width="2" fill="none"/></g><g transform="translate(283.4345703125 695) rotate(0 36.5654296875 16.099999999999994)"><text x="36.5654296875" y="25.760546874999996" font-family="Helvetica, Segoe UI Emoji" font-size="28px" fill="#1971c2" text-anchor="middle" style="white-space: pre;" direction="ltr" dominant-baseline="alphabetic">OID 2</text></g><g stroke-linecap="round" transform="translate(230 730) rotate(0 90 21.099999999999994)"><path d="M0 0 C42.99 0, 85.98 0, 180 0 M0 0 C70.78 0, 141.57 0, 180 0 M180 0 C180 9.19, 180 18.39, 180 42.2 M180 0 C180 14.56, 180 29.13, 180 42.2 M180 42.2 C119.17 42.2, 58.33 42.2, 0 42.2 M180 42.2 C128.56 42.2, 77.12 42.2, 0 42.2 M0 42.2 C0 27.07, 0 11.93, 0 0 M0 42.2 C0 32.09, 0 21.99, 0 0" stroke="#1971c2" stroke-width="2" fill="none"/></g><g transform="translate(283.4345703125 735) rotate(0 36.5654296875 16.099999999999994)"><text x="36.5654296875" y="25.760546874999996" font-family="Helvetica, Segoe UI Emoji" font-size="28px" fill="#1971c2" text-anchor="middle" style="white-space: pre;" direction="ltr" dominant-baseline="alphabetic">OID 3</text></g><g stroke-linecap="round" transform="translate(230 770) rotate(0 90 21.099999999999994)"><path d="M0 0 C62.5 0, 125 0, 180 0 M0 0 C40.17 0, 80.34 0, 180 0 M180 0 C180 15.44, 180 30.87, 180 42.2 M180 0 C180 12.92, 180 25.85, 180 42.2 M180 42.2 C111.86 42.2, 43.72 42.2, 0 42.2 M180 42.2 C129.47 42.2, 78.94 42.2, 0 42.2 M0 42.2 C0 27.29, 0 12.38, 0 0 M0 42.2 C0 31.76, 0 21.32, 0 0" stroke="#1971c2" stroke-width="2" fill="none"/></g><g transform="translate(308.3310546875 775) rotate(0 11.6689453125 16.099999999999994)"><text x="11.6689453125" y="25.760546874999996" font-family="Helvetica, Segoe UI Emoji" font-size="28px" fill="#1971c2" text-anchor="middle" style="white-space: pre;" direction="ltr" dominant-baseline="alphabetic">...</text></g><g stroke-linecap="round" transform="translate(230 810) rotate(0 90 21.099999999999994)"><path d="M0 0 C58.44 0, 116.87 0, 180 0 M0 0 C48.78 0, 97.55 0, 180 0 M180 0 C180 16.25, 180 32.49, 180 42.2 M180 0 C180 12.84, 180 25.69, 180 42.2 M180 42.2 C117.19 42.2, 54.38 42.2, 0 42.2 M180 42.2 C110.99 42.2, 41.98 42.2, 0 42.2 M0 42.2 C0 28.93, 0 15.65, 0 0 M0 42.2 C0 33.69, 0 25.19, 0 0" stroke="#1971c2" stroke-width="2" fill="none"/></g><g transform="translate(281.1103515625 815) rotate(0 38.8896484375 16.099999999999994)"><text x="38.8896484375" y="25.760546874999996" font-family="Helvetica, Segoe UI Emoji" font-size="28px" fill="#1971c2" text-anchor="middle" style="white-space: pre;" direction="ltr" dominant-baseline="alphabetic">OID N</text></g><g stroke-linecap="round"><g transform="translate(171 748.6666666666667) rotate(0 29 -38.666666666666686)"><path d="M0 0 C16.5 -22.01, 33.01 -44.01, 58 -77.33 M0 0 C13.74 -18.32, 27.48 -36.64, 58 -77.33" stroke="#1971c2" stroke-width="2" fill="none"/></g><g transform="translate(171 748.6666666666667) rotate(0 29 -38.666666666666686)"><path d="M50.75 -53.41 C52.81 -60.22, 54.87 -67.03, 58 -77.33 M50.75 -53.41 C52.46 -59.08, 54.18 -64.75, 58 -77.33" stroke="#1971c2" stroke-width="2" fill="none"/></g><g transform="translate(171 748.6666666666667) rotate(0 29 -38.666666666666686)"><path d="M37.06 -63.67 C43.02 -67.56, 48.98 -71.45, 58 -77.33 M37.06 -63.67 C42.02 -66.91, 46.98 -70.14, 58 -77.33" stroke="#1971c2" stroke-width="2" fill="none"/></g></g><mask/><g stroke-linecap="round"><g transform="translate(170.99999999999994 749.3333333333334) rotate(0 29.00000000000003 -19.33333333333337)"><path d="M0 0 C20.89 -13.93, 41.78 -27.85, 58 -38.67 M0 0 C17.33 -11.56, 34.67 -23.11, 58 -38.67" stroke="#1971c2" stroke-width="2" fill="none"/></g><g transform="translate(170.99999999999994 749.3333333333334) rotate(0 29.00000000000003 -19.33333333333337)"><path d="M43.2 -18.52 C48.53 -25.78, 53.86 -33.03, 58 -38.67 M43.2 -18.52 C47.62 -24.54, 52.04 -30.56, 58 -38.67" stroke="#1971c2" stroke-width="2" fill="none"/></g><g transform="translate(170.99999999999994 749.3333333333334) rotate(0 29.00000000000003 -19.33333333333337)"><path d="M33.71 -32.75 C42.46 -34.88, 51.21 -37.01, 58 -38.67 M33.71 -32.75 C40.97 -34.52, 48.23 -36.29, 58 -38.67" stroke="#1971c2" stroke-width="2" fill="none"/></g></g><mask/><g stroke-linecap="round"><g transform="translate(171 750) rotate(0 29 0)"><path d="M0 0 C13.51 0, 27.02 0, 58 0 M0 0 C16.22 0, 32.43 0, 58 0" stroke="#1971c2" stroke-width="2" fill="none"/></g><g transform="translate(171 750) rotate(0 29 0)"><path d="M34.51 8.55 C39.98 6.56, 45.45 4.57, 58 0 M34.51 8.55 C41.08 6.16, 47.64 3.77, 58 0" stroke="#1971c2" stroke-width="2" fill="none"/></g><g transform="translate(171 750) rotate(0 29 0)"><path d="M34.51 -8.55 C39.98 -6.56, 45.45 -4.57, 58 0 M34.51 -8.55 C41.08 -6.16, 47.64 -3.77, 58 0" stroke="#1971c2" stroke-width="2" fill="none"/></g></g><mask/><g stroke-linecap="round"><g transform="translate(170.99999999999994 750.6666666666666) rotate(0 29.000000000000057 19.33333333333337)"><path d="M0 0 C22.01 14.67, 44.02 29.35, 58 38.67 M0 0 C18.68 12.45, 37.36 24.91, 58 38.67" stroke="#1971c2" stroke-width="2" fill="none"/></g><g transform="translate(170.99999999999994 750.6666666666666) rotate(0 29.000000000000057 19.33333333333337)"><path d="M33.71 32.75 C42.93 35, 52.15 37.24, 58 38.67 M33.71 32.75 C41.53 34.66, 49.36 36.56, 58 38.67" stroke="#1971c2" stroke-width="2" fill="none"/></g><g transform="translate(170.99999999999994 750.6666666666666) rotate(0 29.000000000000057 19.33333333333337)"><path d="M43.2 18.52 C48.81 26.17, 54.43 33.81, 58 38.67 M43.2 18.52 C47.96 25.01, 52.73 31.5, 58 38.67" stroke="#1971c2" stroke-width="2" fill="none"/></g></g><mask/><g stroke-linecap="round"><g transform="translate(171 751.3333333333333) rotate(0 29 38.666666666666686)"><path d="M0 0 C19.03 25.38, 38.07 50.75, 58 77.33 M0 0 C22.61 30.14, 45.21 60.29, 58 77.33" stroke="#1971c2" stroke-width="2" fill="none"/></g><g transform="translate(171 751.3333333333333) rotate(0 29 38.666666666666686)"><path d="M37.06 63.67 C43.93 68.15, 50.8 72.64, 58 77.33 M37.06 63.67 C45.22 69, 53.39 74.32, 58 77.33" stroke="#1971c2" stroke-width="2" fill="none"/></g><g transform="translate(171 751.3333333333333) rotate(0 29 38.666666666666686)"><path d="M50.75 53.41 C53.13 61.26, 55.51 69.11, 58 77.33 M50.75 53.41 C53.57 62.73, 56.4 72.06, 58 77.33" stroke="#1971c2" stroke-width="2" fill="none"/></g></g><mask/><g stroke-linecap="round" transform="translate(250 490) rotate(0 80 40)"><path d="M20 0 C58.23 0, 96.46 0, 140 0 M20 0 C49.15 0, 78.31 0, 140 0 M140 0 C153.33 0, 160 6.67, 160 20 M140 0 C153.33 0, 160 6.67, 160 20 M160 20 C160 29.27, 160 38.53, 160 60 M160 20 C160 28.23, 160 36.45, 160 60 M160 60 C160 73.33, 153.33 80, 140 80 M160 60 C160 73.33, 153.33 80, 140 80 M140 80 C98.73 80, 57.46 80, 20 80 M140 80 C101.76 80, 63.52 80, 20 80 M20 80 C6.67 80, 0 73.33, 0 60 M20 80 C6.67 80, 0 73.33, 0 60 M0 60 C0 49.35, 0 38.7, 0 20 M0 60 C0 51.05, 0 42.1, 0 20 M0 20 C0 6.67, 6.67 0, 20 0 M0 20 C0 6.67, 6.67 0, 20 0" stroke="#1e1e1e" stroke-width="1" fill="none"/></g><g transform="translate(280.193359375 513.9) rotate(0 49.806640625 16.099999999999994)"><text x="49.806640625" y="25.760546874999996" font-family="Helvetica, Segoe UI Emoji" font-size="28px" fill="#1e1e1e" text-anchor="middle" style="white-space: pre;" direction="ltr" dominant-baseline="alphabetic">model 2</text></g><g stroke-linecap="round" transform="translate(470 370) rotate(0 90 130)"><path d="M0 0 C45.61 0, 91.21 0, 180 0 M0 0 C42.24 0, 84.48 0, 180 0 M180 0 C180 98.77, 180 197.55, 180 260 M180 0 C180 83.13, 180 166.25, 180 260 M180 260 C143.72 260, 107.44 260, 0 260 M180 260 C135.28 260, 90.56 260, 0 260 M0 260 C0 170.86, 0 81.73, 0 0 M0 260 C0 184.76, 0 109.51, 0 0" stroke="#1971c2" stroke-width="2" fill="none"/></g><g transform="translate(483.7451171875 375) rotate(0 76.2548828125 16.099999999999998)"><text x="76.2548828125" y="25.760546874999996" font-family="Helvetica, Segoe UI Emoji" font-size="28px" fill="#1971c2" text-anchor="middle" style="white-space: pre;" direction="ltr" dominant-baseline="alphabetic">OrderCache</text></g><g stroke-linecap="round" transform="translate(470 430) rotate(0 90 21.099999999999994)"><path d="M0 0 C43.32 0, 86.64 0, 180 0 M0 0 C51.69 0, 103.38 0, 180 0 M180 0 C180 9.78, 180 19.55, 180 42.2 M180 0 C180 8.68, 180 17.36, 180 42.2 M180 42.2 C143.41 42.2, 106.83 42.2, 0 42.2 M180 42.2 C133.83 42.2, 87.66 42.2, 0 42.2 M0 42.2 C0 26.55, 0 10.9, 0 0 M0 42.2 C0 33.16, 0 24.12, 0 0" stroke="#1971c2" stroke-width="2" fill="none"/></g><g transform="translate(523.4345703125 435) rotate(0 36.5654296875 16.099999999999994)"><text x="36.5654296875" y="25.760546874999996" font-family="Helvetica, Segoe UI Emoji" font-size="28px" fill="#1971c2" text-anchor="middle" style="white-space: pre;" direction="ltr" dominant-baseline="alphabetic">OID 1</text></g><g stroke-linecap="round" transform="translate(470 470) rotate(0 90 21.099999999999994)"><path d="M0 0 C66.14 0, 132.28 0, 180 0 M0 0 C70.44 0, 140.87 0, 180 0 M180 0 C180 8.47, 180 16.95, 180 42.2 M180 0 C180 8.83, 180 17.66, 180 42.2 M180 42.2 C133.34 42.2, 86.67 42.2, 0 42.2 M180 42.2 C135.81 42.2, 91.63 42.2, 0 42.2 M0 42.2 C0 28, 0 13.8, 0 0 M0 42.2 C0 25.62, 0 9.03, 0 0" stroke="#1971c2" stroke-width="2" fill="none"/></g><g transform="translate(523.4345703125 475) rotate(0 36.5654296875 16.099999999999994)"><text x="36.5654296875" y="25.760546874999996" font-family="Helvetica, Segoe UI Emoji" font-size="28px" fill="#1971c2" text-anchor="middle" style="white-space: pre;" direction="ltr" dominant-baseline="alphabetic">OID 2</text></g><g stroke-linecap="round" transform="translate(470 510) rotate(0 90 21.099999999999994)"><path d="M0 0 C50.67 0, 101.35 0, 180 0 M0 0 C36.35 0, 72.69 0, 180 0 M180 0 C180 16.29, 180 32.57, 180 42.2 M180 0 C180 13.59, 180 27.19, 180 42.2 M180 42.2 C118.09 42.2, 56.18 42.2, 0 42.2 M180 42.2 C122.64 42.2, 65.28 42.2, 0 42.2 M0 42.2 C0 28.91, 0 15.62, 0 0 M0 42.2 C0 33.1, 0 23.99, 0 0" stroke="#1971c2" stroke-width="2" fill="none"/></g><g transform="translate(523.4345703125 515) rotate(0 36.5654296875 16.099999999999994)"><text x="36.5654296875" y="25.760546874999996" font-family="Helvetica, Segoe UI Emoji" font-size="28px" fill="#1971c2" text-anchor="middle" style="white-space: pre;" direction="ltr" dominant-baseline="alphabetic">OID 3</text></g><g stroke-linecap="round" transform="translate(470 550) rotate(0 90 21.099999999999994)"><path d="M0 0 C52.52 0, 105.04 0, 180 0 M0 0 C60.83 0, 121.66 0, 180 0 M180 0 C180 12.52, 180 25.04, 180 42.2 M180 0 C180 14.76, 180 29.53, 180 42.2 M180 42.2 C109.31 42.2, 38.62 42.2, 0 42.2 M180 42.2 C136.17 42.2, 92.35 42.2, 0 42.2 M0 42.2 C0 29.85, 0 17.51, 0 0 M0 42.2 C0 25.89, 0 9.57, 0 0" stroke="#1971c2" stroke-width="2" fill="none"/></g><g transform="translate(548.3310546875 555) rotate(0 11.6689453125 16.099999999999994)"><text x="11.6689453125" y="25.760546874999996" font-family="Helvetica, Segoe UI Emoji" font-size="28px" fill="#1971c2" text-anchor="middle" style="white-space: pre;" direction="ltr" dominant-baseline="alphabetic">...</text></g><g stroke-linecap="round" transform="translate(470 590) rotate(0 90 21.099999999999994)"><path d="M0 0 C48.22 0, 96.44 0, 180 0 M0 0 C50.82 0, 101.63 0, 180 0 M180 0 C180 14.92, 180 29.85, 180 42.2 M180 0 C180 8.95, 180 17.9, 180 42.2 M180 42.2 C143.66 42.2, 107.31 42.2, 0 42.2 M180 42.2 C116.77 42.2, 53.54 42.2, 0 42.2 M0 42.2 C0 30.96, 0 19.73, 0 0 M0 42.2 C0 32.76, 0 23.32, 0 0" stroke="#1971c2" stroke-width="2" fill="none"/></g><g transform="translate(519.55859375 595) rotate(0 40.44140625 16.099999999999994)"><text x="40.44140625" y="25.760546874999996" font-family="Helvetica, Segoe UI Emoji" font-size="28px" fill="#1971c2" text-anchor="middle" style="white-space: pre;" direction="ltr" dominant-baseline="alphabetic">OID M</text></g><g stroke-linecap="round"><g transform="translate(411 528.6666666666667) rotate(0 29 -38.66666666666667)"><path d="M0 0 C19.76 -26.34, 39.51 -52.68, 58 -77.33 M0 0 C16.36 -21.82, 32.73 -43.63, 58 -77.33" stroke="#1971c2" stroke-width="2" fill="none"/></g><g transform="translate(411 528.6666666666667) rotate(0 29 -38.66666666666667)"><path d="M50.75 -53.41 C53.22 -61.56, 55.69 -69.71, 58 -77.33 M50.75 -53.41 C52.79 -60.16, 54.84 -66.91, 58 -77.33" stroke="#1971c2" stroke-width="2" fill="none"/></g><g transform="translate(411 528.6666666666667) rotate(0 29 -38.66666666666667)"><path d="M37.06 -63.67 C44.2 -68.32, 51.33 -72.98, 58 -77.33 M37.06 -63.67 C42.97 -67.52, 48.88 -71.38, 58 -77.33" stroke="#1971c2" stroke-width="2" fill="none"/></g></g><mask/><g stroke-linecap="round"><g transform="translate(411 529.3333333333333) rotate(0 28.999999999999986 -19.333333333333343)"><path d="M0 0 C22.38 -14.92, 44.77 -29.85, 58 -38.67 M0 0 C18.68 -12.46, 37.37 -24.91, 58 -38.67" stroke="#1971c2" stroke-width="2" fill="none"/></g><g transform="translate(411 529.3333333333333) rotate(0 28.999999999999986 -19.333333333333343)"><path d="M43.2 -18.52 C48.91 -26.3, 54.62 -34.07, 58 -38.67 M43.2 -18.52 C47.96 -25.01, 52.73 -31.5, 58 -38.67" stroke="#1971c2" stroke-width="2" fill="none"/></g><g transform="translate(411 529.3333333333333) rotate(0 28.999999999999986 -19.333333333333343)"><path d="M33.71 -32.75 C43.08 -35.03, 52.46 -37.32, 58 -38.67 M33.71 -32.75 C41.53 -34.66, 49.36 -36.56, 58 -38.67" stroke="#1971c2" stroke-width="2" fill="none"/></g></g><mask/><g stroke-linecap="round"><g transform="translate(411 530) rotate(0 29 0)"><path d="M0 0 C11.69 0, 23.38 0, 58 0 M0 0 C14.41 0, 28.82 0, 58 0" stroke="#1971c2" stroke-width="2" fill="none"/></g><g transform="translate(411 530) rotate(0 29 0)"><path d="M34.51 8.55 C39.24 6.83, 43.98 5.1, 58 0 M34.51 8.55 C40.34 6.43, 46.18 4.3, 58 0" stroke="#1971c2" stroke-width="2" fill="none"/></g><g transform="translate(411 530) rotate(0 29 0)"><path d="M34.51 -8.55 C39.24 -6.83, 43.98 -5.1, 58 0 M34.51 -8.55 C40.34 -6.43, 46.18 -4.3, 58 0" stroke="#1971c2" stroke-width="2" fill="none"/></g></g><mask/><g stroke-linecap="round"><g transform="translate(411 530.6666666666666) rotate(0 29 19.33333333333333)"><path d="M0 0 C17.21 11.47, 34.42 22.95, 58 38.67 M0 0 C20.29 13.53, 40.58 27.05, 58 38.67" stroke="#1971c2" stroke-width="2" fill="none"/></g><g transform="translate(411 530.6666666666666) rotate(0 29 19.33333333333333)"><path d="M33.71 32.75 C40.92 34.51, 48.12 36.26, 58 38.67 M33.71 32.75 C42.21 34.82, 50.7 36.89, 58 38.67" stroke="#1971c2" stroke-width="2" fill="none"/></g><g transform="translate(411 530.6666666666666) rotate(0 29 19.33333333333333)"><path d="M43.2 18.52 C47.59 24.5, 51.98 30.48, 58 38.67 M43.2 18.52 C48.37 25.57, 53.55 32.62, 58 38.67" stroke="#1971c2" stroke-width="2" fill="none"/></g></g><mask/><g stroke-linecap="round"><g transform="translate(411 531.3333333333333) rotate(0 29 38.66666666666666)"><path d="M0 0 C11.79 15.72, 23.58 31.44, 58 77.33 M0 0 C14.88 19.84, 29.75 39.67, 58 77.33" stroke="#1971c2" stroke-width="2" fill="none"/></g><g transform="translate(411 531.3333333333333) rotate(0 29 38.66666666666666)"><path d="M37.06 63.67 C41.32 66.45, 45.57 69.22, 58 77.33 M37.06 63.67 C42.43 67.17, 47.8 70.68, 58 77.33" stroke="#1971c2" stroke-width="2" fill="none"/></g><g transform="translate(411 531.3333333333333) rotate(0 29 38.66666666666666)"><path d="M50.75 53.41 C52.22 58.27, 53.69 63.13, 58 77.33 M50.75 53.41 C52.61 59.55, 54.47 65.68, 58 77.33" stroke="#1971c2" stroke-width="2" fill="none"/></g></g><mask/><g stroke-linecap="round"><g transform="translate(651 454) rotate(0 29.375 117.49999999999999)"><path d="M0 0 C17.16 68.63, 34.31 137.25, 58.75 235 M0 0 C20.75 83, 41.5 166, 58.75 235" stroke="#1971c2" stroke-width="2" fill="none"/></g><g transform="translate(651 454) rotate(0 29.375 117.49999999999999)"><path d="M44.76 214.28 C48.84 220.33, 52.93 226.38, 58.75 235 M44.76 214.28 C49.7 221.6, 54.64 228.92, 58.75 235" stroke="#1971c2" stroke-width="2" fill="none"/></g><g transform="translate(651 454) rotate(0 29.375 117.49999999999999)"><path d="M61.35 210.14 C60.59 217.4, 59.83 224.66, 58.75 235 M61.35 210.14 C60.43 218.92, 59.51 227.7, 58.75 235" stroke="#1971c2" stroke-width="2" fill="none"/></g></g><mask/><g stroke-linecap="round"><g transform="translate(651 493.33333333333337) rotate(0 29.35 97.8333333333333)"><path d="M0 0 C18.35 61.16, 36.7 122.33, 58.7 195.67 M0 0 C22.95 76.5, 45.9 153, 58.7 195.67" stroke="#1971c2" stroke-width="2" fill="none"/></g><g transform="translate(651 493.33333333333337) rotate(0 29.35 97.8333333333333)"><path d="M43.76 175.62 C48.43 181.89, 53.1 188.15, 58.7 195.67 M43.76 175.62 C49.6 183.46, 55.44 191.3, 58.7 195.67" stroke="#1971c2" stroke-width="2" fill="none"/></g><g transform="translate(651 493.33333333333337) rotate(0 29.35 97.8333333333333)"><path d="M60.14 170.71 C59.69 178.51, 59.24 186.31, 58.7 195.67 M60.14 170.71 C59.58 180.47, 59.01 190.22, 58.7 195.67" stroke="#1971c2" stroke-width="2" fill="none"/></g></g><mask/><g stroke-linecap="round"><g transform="translate(650 530) rotate(0 29.812500000000014 79.5)"><path d="M0 0 C14.88 39.69, 29.77 79.38, 59.63 159 M0 0 C20.97 55.91, 41.93 111.81, 59.63 159" stroke="#1971c2" stroke-width="2" fill="none"/></g><g transform="translate(650 530) rotate(0 29.812500000000014 79.5)"><path d="M43.37 140.01 C47.43 144.75, 51.48 149.49, 59.63 159 M43.37 140.01 C49.09 146.68, 54.8 153.36, 59.63 159" stroke="#1971c2" stroke-width="2" fill="none"/></g><g transform="translate(650 530) rotate(0 29.812500000000014 79.5)"><path d="M59.38 134 C59.44 140.24, 59.5 146.48, 59.63 159 M59.38 134 C59.47 142.79, 59.55 151.58, 59.63 159" stroke="#1971c2" stroke-width="2" fill="none"/></g></g><mask/><g stroke-linecap="round"><g transform="translate(651 572) rotate(0 29.249999999999993 58.499999999999986)"><path d="M0 0 C18.47 36.94, 36.94 73.89, 58.5 117 M0 0 C18.46 36.93, 36.93 73.85, 58.5 117" stroke="#1971c2" stroke-width="2" fill="none"/></g><g transform="translate(651 572) rotate(0 29.249999999999993 58.499999999999986)"><path d="M40.35 99.81 C46.08 105.24, 51.81 110.67, 58.5 117 M40.35 99.81 C46.08 105.24, 51.81 110.66, 58.5 117" stroke="#1971c2" stroke-width="2" fill="none"/></g><g transform="translate(651 572) rotate(0 29.249999999999993 58.499999999999986)"><path d="M55.64 92.16 C56.54 100.01, 57.45 107.85, 58.5 117 M55.64 92.16 C56.54 100, 57.45 107.84, 58.5 117" stroke="#1971c2" stroke-width="2" fill="none"/></g></g><mask/><g stroke-linecap="round"><g transform="translate(651 611.3333333333334) rotate(0 29.125 38.833333333333314)"><path d="M0 0 C11.84 15.78, 23.67 31.56, 58.25 77.67 M0 0 C15.16 20.22, 30.33 40.44, 58.25 77.67" stroke="#1971c2" stroke-width="2" fill="none"/></g><g transform="translate(651 611.3333333333334) rotate(0 29.125 38.833333333333314)"><path d="M37.31 64 C41.57 66.78, 45.82 69.56, 58.25 77.67 M37.31 64 C42.76 67.56, 48.21 71.12, 58.25 77.67" stroke="#1971c2" stroke-width="2" fill="none"/></g><g transform="translate(651 611.3333333333334) rotate(0 29.125 38.833333333333314)"><path d="M51 53.74 C52.47 58.6, 53.94 63.46, 58.25 77.67 M51 53.74 C52.88 59.97, 54.77 66.2, 58.25 77.67" stroke="#1971c2" stroke-width="2" fill="none"/></g></g><mask/><g stroke-linecap="round"><g transform="translate(411 670.2142857142858) rotate(0 139 29.785714285714278)"><path d="M0 0 C69.66 14.93, 139.32 29.85, 278 59.57 M0 0 C95.67 20.5, 191.34 41, 278 59.57" stroke="#1971c2" stroke-width="2" fill="none"/></g><g transform="translate(411 670.2142857142858) rotate(0 139 29.785714285714278)"><path d="M253.24 63.01 C259.44 62.15, 265.65 61.29, 278 59.57 M253.24 63.01 C261.76 61.83, 270.28 60.64, 278 59.57" stroke="#1971c2" stroke-width="2" fill="none"/></g><g transform="translate(411 670.2142857142858) rotate(0 139 29.785714285714278)"><path d="M256.82 46.29 C262.13 49.62, 267.43 52.95, 278 59.57 M256.82 46.29 C264.11 50.86, 271.4 55.43, 278 59.57" stroke="#1971c2" stroke-width="2" fill="none"/></g></g><mask/><g stroke-linecap="round"><g transform="translate(411 710.0714285714286) rotate(0 139 9.928571428571445)"><path d="M0 0 C96.38 6.88, 192.76 13.77, 278 19.86 M0 0 C101.64 7.26, 203.27 14.52, 278 19.86" stroke="#1971c2" stroke-width="2" fill="none"/></g><g transform="translate(411 710.0714285714286) rotate(0 139 9.928571428571445)"><path d="M253.96 26.71 C262.29 24.34, 270.63 21.96, 278 19.86 M253.96 26.71 C262.75 24.21, 271.54 21.7, 278 19.86" stroke="#1971c2" stroke-width="2" fill="none"/></g><g transform="translate(411 710.0714285714286) rotate(0 139 9.928571428571445)"><path d="M255.18 9.65 C263.09 13.19, 271 16.73, 278 19.86 M255.18 9.65 C263.52 13.38, 271.86 17.11, 278 19.86" stroke="#1971c2" stroke-width="2" fill="none"/></g></g><mask/><g stroke-linecap="round"><g transform="translate(411 749.9285714285714) rotate(0 139 -9.928571428571416)"><path d="M0 0 C88.1 -6.29, 176.21 -12.59, 278 -19.86 M0 0 C67.09 -4.79, 134.18 -9.58, 278 -19.86" stroke="#1971c2" stroke-width="2" fill="none"/></g><g transform="translate(411 749.9285714285714) rotate(0 139 -9.928571428571416)"><path d="M255.18 -9.65 C262.41 -12.89, 269.64 -16.12, 278 -19.86 M255.18 -9.65 C260.68 -12.12, 266.19 -14.58, 278 -19.86" stroke="#1971c2" stroke-width="2" fill="none"/></g><g transform="translate(411 749.9285714285714) rotate(0 139 -9.928571428571416)"><path d="M253.96 -26.71 C261.58 -24.54, 269.2 -22.37, 278 -19.86 M253.96 -26.71 C259.76 -25.06, 265.56 -23.4, 278 -19.86" stroke="#1971c2" stroke-width="2" fill="none"/></g></g><mask/><g stroke-linecap="round"><g transform="translate(411 789.7857142857143) rotate(0 139 -29.785714285714306)"><path d="M0 0 C58.75 -12.59, 117.49 -25.18, 278 -59.57 M0 0 C86.82 -18.61, 173.65 -37.21, 278 -59.57" stroke="#1971c2" stroke-width="2" fill="none"/></g><g transform="translate(411 789.7857142857143) rotate(0 139 -29.785714285714306)"><path d="M256.82 -46.29 C261.3 -49.1, 265.77 -51.9, 278 -59.57 M256.82 -46.29 C263.44 -50.44, 270.05 -54.59, 278 -59.57" stroke="#1971c2" stroke-width="2" fill="none"/></g><g transform="translate(411 789.7857142857143) rotate(0 139 -29.785714285714306)"><path d="M253.24 -63.01 C258.47 -62.28, 263.7 -61.56, 278 -59.57 M253.24 -63.01 C260.97 -61.94, 268.71 -60.86, 278 -59.57" stroke="#1971c2" stroke-width="2" fill="none"/></g></g><mask/><g stroke-linecap="round"><g transform="translate(411 829.6428571428571) rotate(0 139 -49.64285714285714)"><path d="M0 0 C82.83 -29.58, 165.65 -59.16, 278 -99.29 M0 0 C67.25 -24.02, 134.51 -48.04, 278 -99.29" stroke="#1971c2" stroke-width="2" fill="none"/></g><g transform="translate(411 829.6428571428571) rotate(0 139 -49.64285714285714)"><path d="M258.75 -83.33 C264.49 -88.09, 270.22 -92.84, 278 -99.29 M258.75 -83.33 C263.41 -87.19, 268.06 -91.05, 278 -99.29" stroke="#1971c2" stroke-width="2" fill="none"/></g><g transform="translate(411 829.6428571428571) rotate(0 139 -49.64285714285714)"><path d="M253 -99.44 C260.45 -99.39, 267.9 -99.35, 278 -99.29 M253 -99.44 C259.05 -99.4, 265.1 -99.36, 278 -99.29" stroke="#1971c2" stroke-width="2" fill="none"/></g></g><mask/><g stroke-linecap="round"><g transform="translate(801.8013024677936 689) rotate(0 72.09908370269231 -110.36327607101715)"><path d="M0 0 C40.08 -61.35, 80.16 -122.7, 144.2 -220.73 M0 0 C34.12 -52.23, 68.24 -104.45, 144.2 -220.73" stroke="#e03131" stroke-width="2" fill="none"/></g><g transform="translate(801.8013024677936 689) rotate(0 72.09908370269231 -110.36327607101715)"><path d="M138.51 -196.38 C140.09 -203.15, 141.67 -209.92, 144.2 -220.73 M138.51 -196.38 C139.85 -202.14, 141.2 -207.9, 144.2 -220.73" stroke="#e03131" stroke-width="2" fill="none"/></g><g transform="translate(801.8013024677936 689) rotate(0 72.09908370269231 -110.36327607101715)"><path d="M124.19 -205.74 C129.75 -209.9, 135.31 -214.07, 144.2 -220.73 M124.19 -205.74 C128.93 -209.28, 133.66 -212.83, 144.2 -220.73" stroke="#e03131" stroke-width="2" fill="none"/></g></g><mask/><g stroke-linecap="round" transform="translate(1170 550) rotate(0 70 60)"><path d="M30 0 C60.4 0, 90.79 0, 110 0 C130 0, 140 10, 140 30 C140 51.28, 140 72.57, 140 90 C140 110, 130 120, 110 120 C92.53 120, 75.06 120, 30 120 C10 120, 0 110, 0 90 C0 68.14, 0 46.28, 0 30 C0 10, 10 0, 30 0" stroke="none" stroke-width="0" fill="#b2f2bb"/><path d="M30 0 C60.79 0, 91.57 0, 110 0 M30 0 C58.17 0, 86.33 0, 110 0 M110 0 C130 0, 140 10, 140 30 M110 0 C130 0, 140 10, 140 30 M140 30 C140 42.23, 140 54.47, 140 90 M140 30 C140 45.5, 140 61.01, 140 90 M140 90 C140 110, 130 120, 110 120 M140 90 C140 110, 130 120, 110 120 M110 120 C82.93 120, 55.86 120, 30 120 M110 120 C93.3 120, 76.6 120, 30 120 M30 120 C10 120, 0 110, 0 90 M30 120 C10 120, 0 110, 0 90 M0 90 C0 67.56, 0 45.12, 0 30 M0 90 C0 66.2, 0 42.41, 0 30 M0 30 C0 10, 10 0, 30 0 M0 30 C0 10, 10 0, 30 0" stroke="#1e1e1e" stroke-width="1" fill="none"/></g><g transform="translate(1203.8671875 587) rotate(0 36.1328125 23)"><text x="36.1328125" y="18.400390625" font-family="Helvetica, Segoe UI Emoji" font-size="20px" fill="#1e1e1e" text-anchor="middle" style="white-space: pre;" direction="ltr" dominant-baseline="alphabetic">Account</text><text x="36.1328125" y="41.400390625" font-family="Helvetica, Segoe UI Emoji" font-size="20px" fill="#1e1e1e" text-anchor="middle" style="white-space: pre;" direction="ltr" dominant-baseline="alphabetic">Handler</text></g><g stroke-linecap="round"><g transform="translate(1385 614.8818026140609) rotate(0 -36.6993859814059 -1.4462937449359288)"><path d="M0 0 C-12.23 -0.48, -61.17 -2.41, -73.4 -2.89 M0 0 C-12.23 -0.48, -61.17 -2.41, -73.4 -2.89" stroke="#2f9e44" stroke-width="2" fill="none"/></g><g transform="translate(1385 614.8818026140609) rotate(0 -36.6993859814059 -1.4462937449359288)"><path d="M-23.81 7.62 C-15.81 5.06, -7.81 2.5, 0 0 M-23.81 7.62 C-15.32 4.9, -6.82 2.18, 0 0" stroke="#2f9e44" stroke-width="2" fill="none"/></g><g transform="translate(1385 614.8818026140609) rotate(0 -36.6993859814059 -1.4462937449359288)"><path d="M-23.14 -9.47 C-15.37 -6.29, -7.59 -3.11, 0 0 M-23.14 -9.47 C-14.88 -6.09, -6.63 -2.71, 0 0" stroke="#2f9e44" stroke-width="2" fill="none"/></g><g transform="translate(1385 614.8818026140609) rotate(0 -36.6993859814059 -1.4462937449359288)"><path d="M-49.59 -10.51 C-57.59 -7.95, -65.58 -5.39, -73.4 -2.89 M-49.59 -10.51 C-58.08 -7.79, -66.57 -5.08, -73.4 -2.89" stroke="#2f9e44" stroke-width="2" fill="none"/></g><g transform="translate(1385 614.8818026140609) rotate(0 -36.6993859814059 -1.4462937449359288)"><path d="M-50.26 6.58 C-58.03 3.4, -65.81 0.21, -73.4 -2.89 M-50.26 6.58 C-58.51 3.2, -66.77 -0.18, -73.4 -2.89" stroke="#2f9e44" stroke-width="2" fill="none"/></g></g><mask/><g stroke-linecap="round" transform="translate(1390 590) rotate(0 60 40)"><path d="M20 0 C38.6 0, 57.21 0, 100 0 M20 0 C36.15 0, 52.3 0, 100 0 M100 0 C113.33 0, 120 6.67, 120 20 M100 0 C113.33 0, 120 6.67, 120 20 M120 20 C120 28.19, 120 36.38, 120 60 M120 20 C120 32.85, 120 45.7, 120 60 M120 60 C120 73.33, 113.33 80, 100 80 M120 60 C120 73.33, 113.33 80, 100 80 M100 80 C69.69 80, 39.37 80, 20 80 M100 80 C80.28 80, 60.55 80, 20 80 M20 80 C6.67 80, 0 73.33, 0 60 M20 80 C6.67 80, 0 73.33, 0 60 M0 60 C0 46.69, 0 33.38, 0 20 M0 60 C0 50.78, 0 41.56, 0 20 M0 20 C0 6.67, 6.67 0, 20 0 M0 20 C0 6.67, 6.67 0, 20 0" stroke="#2f9e44" stroke-width="2" fill="none"/></g><g transform="translate(1412.6416015625 613.9) rotate(0 37.3583984375 16.10000000000001)"><text x="37.3583984375" y="25.760546874999996" font-family="Helvetica, Segoe UI Emoji" font-size="28px" fill="#2f9e44" text-anchor="middle" style="white-space: pre;" direction="ltr" dominant-baseline="alphabetic">exch1</text></g><g stroke-linecap="round" transform="translate(1390 810) rotate(0 53.5 40)"><path d="M20 0 C43.06 0, 66.11 0, 87 0 M20 0 C44.37 0, 68.75 0, 87 0 M87 0 C100.33 0, 107 6.67, 107 20 M87 0 C100.33 0, 107 6.67, 107 20 M107 20 C107 35.86, 107 51.71, 107 60 M107 20 C107 35.09, 107 50.18, 107 60 M107 60 C107 73.33, 100.33 80, 87 80 M107 60 C107 73.33, 100.33 80, 87 80 M87 80 C65.79 80, 44.57 80, 20 80 M87 80 C69.98 80, 52.96 80, 20 80 M20 80 C6.67 80, 0 73.33, 0 60 M20 80 C6.67 80, 0 73.33, 0 60 M0 60 C0 48.03, 0 36.07, 0 20 M0 60 C0 47.42, 0 34.84, 0 20 M0 20 C0 6.67, 6.67 0, 20 0 M0 20 C0 6.67, 6.67 0, 20 0" stroke="#2f9e44" stroke-width="2" fill="none"/></g><g transform="translate(1406.1416015625 833.9) rotate(0 37.3583984375 16.099999999999994)"><text x="37.3583984375" y="25.760546874999996" font-family="Helvetica, Segoe UI Emoji" font-size="28px" fill="#2f9e44" text-anchor="middle" style="white-space: pre;" direction="ltr" dominant-baseline="alphabetic">exch2</text></g><g stroke-linecap="round" transform="translate(1170 790) rotate(0 70 60)"><path d="M30 0 C55.74 0, 81.49 0, 110 0 C130 0, 140 10, 140 30 C140 47.85, 140 65.69, 140 90 C140 110, 130 120, 110 120 C91.15 120, 72.31 120, 30 120 C10 120, 0 110, 0 90 C0 74.09, 0 58.17, 0 30 C0 10, 10 0, 30 0" stroke="none" stroke-width="0" fill="#b2f2bb"/><path d="M30 0 C60.26 0, 90.51 0, 110 0 M30 0 C50.23 0, 70.45 0, 110 0 M110 0 C130 0, 140 10, 140 30 M110 0 C130 0, 140 10, 140 30 M140 30 C140 48.65, 140 67.29, 140 90 M140 30 C140 53.08, 140 76.16, 140 90 M140 90 C140 110, 130 120, 110 120 M140 90 C140 110, 130 120, 110 120 M110 120 C91.35 120, 72.69 120, 30 120 M110 120 C79.01 120, 48.02 120, 30 120 M30 120 C10 120, 0 110, 0 90 M30 120 C10 120, 0 110, 0 90 M0 90 C0 72.37, 0 54.73, 0 30 M0 90 C0 71.28, 0 52.57, 0 30 M0 30 C0 10, 10 0, 30 0 M0 30 C0 10, 10 0, 30 0" stroke="#1e1e1e" stroke-width="1" fill="none"/></g><g transform="translate(1203.8671875 827) rotate(0 36.1328125 23)"><text x="36.1328125" y="18.400390625" font-family="Helvetica, Segoe UI Emoji" font-size="20px" fill="#1e1e1e" text-anchor="middle" style="white-space: pre;" direction="ltr" dominant-baseline="alphabetic">Account</text><text x="36.1328125" y="41.400390625" font-family="Helvetica, Segoe UI Emoji" font-size="20px" fill="#1e1e1e" text-anchor="middle" style="white-space: pre;" direction="ltr" dominant-baseline="alphabetic">Handler</text></g><g stroke-linecap="round"><g transform="translate(1389 856.1029058035399) rotate(0 -38.5 1.2035501271761007)"><path d="M0 0 C-12.83 0.4, -64.17 2.01, -77 2.41 M0 0 C-12.83 0.4, -64.17 2.01, -77 2.41" stroke="#2f9e44" stroke-width="2" fill="none"/></g><g transform="translate(1389 856.1029058035399) rotate(0 -38.5 1.2035501271761007)"><path d="M-23.21 9.28 C-15.85 6.34, -8.49 3.4, 0 0 M-23.21 9.28 C-17.65 7.06, -12.09 4.83, 0 0" stroke="#2f9e44" stroke-width="2" fill="none"/></g><g transform="translate(1389 856.1029058035399) rotate(0 -38.5 1.2035501271761007)"><path d="M-23.75 -7.81 C-16.22 -5.34, -8.69 -2.86, 0 0 M-23.75 -7.81 C-18.06 -5.94, -12.37 -4.07, 0 0" stroke="#2f9e44" stroke-width="2" fill="none"/></g><g transform="translate(1389 856.1029058035399) rotate(0 -38.5 1.2035501271761007)"><path d="M-53.79 -6.87 C-61.15 -3.93, -68.51 -0.99, -77 2.41 M-53.79 -6.87 C-59.35 -4.65, -64.91 -2.43, -77 2.41" stroke="#2f9e44" stroke-width="2" fill="none"/></g><g transform="translate(1389 856.1029058035399) rotate(0 -38.5 1.2035501271761007)"><path d="M-53.25 10.22 C-60.78 7.74, -68.31 5.27, -77 2.41 M-53.25 10.22 C-58.94 8.35, -64.63 6.48, -77 2.41" stroke="#2f9e44" stroke-width="2" fill="none"/></g></g><mask/><g stroke-linecap="round"><g transform="translate(1104.9610264658636 443.0568985832645) rotate(0 36.42935393030098 52.971550708367744)"><path d="M0 0 C20.07 29.18, 40.14 58.36, 72.86 105.94 M0 0 C15.7 22.83, 31.41 45.67, 72.86 105.94" stroke="#e03131" stroke-width="2" fill="none"/></g><g transform="translate(1104.9610264658636 443.0568985832645) rotate(0 36.42935393030098 52.971550708367744)"><path d="M52.5 91.43 C58.11 95.43, 63.72 99.43, 72.86 105.94 M52.5 91.43 C56.89 94.56, 61.28 97.69, 72.86 105.94" stroke="#e03131" stroke-width="2" fill="none"/></g><g transform="translate(1104.9610264658636 443.0568985832645) rotate(0 36.42935393030098 52.971550708367744)"><path d="M66.59 81.74 C68.32 88.41, 70.04 95.07, 72.86 105.94 M66.59 81.74 C67.94 86.96, 69.29 92.17, 72.86 105.94" stroke="#e03131" stroke-width="2" fill="none"/></g></g><mask/><g stroke-linecap="round"><g transform="translate(1107.3865365981671 438.47647886469497) rotate(0 49.75621961584994 175.26176056765252)"><path d="M0 0 C30.48 107.35, 60.95 214.71, 99.51 350.52 M0 0 C30.97 109.07, 61.93 218.15, 99.51 350.52" stroke="#e03131" stroke-width="2" fill="none"/></g><g transform="translate(1107.3865365981671 438.47647886469497) rotate(0 49.75621961584994 175.26176056765252)"><path d="M84.87 330.26 C89.36 336.47, 93.84 342.67, 99.51 350.52 M84.87 330.26 C89.43 336.57, 93.98 342.87, 99.51 350.52" stroke="#e03131" stroke-width="2" fill="none"/></g><g transform="translate(1107.3865365981671 438.47647886469497) rotate(0 49.75621961584994 175.26176056765252)"><path d="M101.32 325.59 C100.77 333.23, 100.21 340.86, 99.51 350.52 M101.32 325.59 C100.76 333.35, 100.2 341.11, 99.51 350.52" stroke="#e03131" stroke-width="2" fill="none"/></g></g><mask/><g mask="url(#mask-cmTyUj76iklUm-sGj9rY4)" stroke-linecap="round"><g transform="translate(690 210) rotate(0 110 0)"><path d="M0 0 C52.47 0, 104.94 0, 220 0 M0 0 C57.78 0, 115.55 0, 220 0" stroke="#2f9e44" stroke-width="2" fill="none"/></g><g transform="translate(690 210) rotate(0 110 0)"><path d="M196.51 8.55 C202.11 6.51, 207.71 4.47, 220 0 M196.51 8.55 C202.68 6.3, 208.85 4.06, 220 0" stroke="#2f9e44" stroke-width="2" fill="none"/></g><g transform="translate(690 210) rotate(0 110 0)"><path d="M196.51 -8.55 C202.11 -6.51, 207.71 -4.47, 220 0 M196.51 -8.55 C202.68 -6.3, 208.85 -4.06, 220 0" stroke="#2f9e44" stroke-width="2" fill="none"/></g></g><mask id="mask-cmTyUj76iklUm-sGj9rY4"><rect x="0" y="0" fill="#fff" width="1010" height="310"/><rect x="728.6669921875" y="193.9" fill="#000" width="142.666015625" height="32.199999999999996" opacity="1"/></mask><g transform="translate(728.6669921875 193.9) rotate(0 71.3330078125 16.099999999999994)"><text x="71.3330078125" y="25.760546874999996" font-family="Helvetica, Segoe UI Emoji" font-size="28px" fill="#2f9e44" text-anchor="middle" style="white-space: pre;" direction="ltr" dominant-baseline="alphabetic">WebSocket</text></g><g mask="url(#mask-C1_5Q2y_tZdT7U97aW6BD)" stroke-linecap="round"><g transform="translate(690 250) rotate(0 110 0)"><path d="M0 0 C82.02 0, 164.05 0, 220 0 M0 0 C86.19 0, 172.38 0, 220 0" stroke="#e03131" stroke-width="2" fill="none"/></g><g transform="translate(690 250) rotate(0 110 0)"><path d="M196.51 8.55 C205.27 5.36, 214.03 2.17, 220 0 M196.51 8.55 C205.71 5.2, 214.92 1.85, 220 0" stroke="#e03131" stroke-width="2" fill="none"/></g><g transform="translate(690 250) rotate(0 110 0)"><path d="M196.51 -8.55 C205.27 -5.36, 214.03 -2.17, 220 0 M196.51 -8.55 C205.71 -5.2, 214.92 -1.85, 220 0" stroke="#e03131" stroke-width="2" fill="none"/></g></g><mask id="mask-C1_5Q2y_tZdT7U97aW6BD"><rect x="0" y="0" fill="#fff" width="1010" height="350"/><rect x="730.73828125" y="233.9" fill="#000" width="138.5234375" height="32.199999999999996" opacity="1"/></mask><g transform="translate(730.73828125 233.9) rotate(0 69.26171875 16.099999999999994)"><text x="69.26171875" y="25.760546874999996" font-family="Helvetica, Segoe UI Emoji" font-size="28px" fill="#e03131" text-anchor="middle" style="white-space: pre;" direction="ltr" dominant-baseline="alphabetic">IPC Queue</text></g><g mask="url(#mask-ZH9k9EdB5UaHIWg4zsrog)" stroke-linecap="round"><g transform="translate(690 290) rotate(0 110 0)"><path d="M0 0 C87.47 0, 174.95 0, 220 0 M0 0 C46.34 0, 92.68 0, 220 0" stroke="#1971c2" stroke-width="2" fill="none"/></g><g transform="translate(690 290) rotate(0 110 0)"><path d="M196.51 8.55 C205.85 5.15, 215.19 1.75, 220 0 M196.51 8.55 C201.46 6.75, 206.4 4.95, 220 0" stroke="#1971c2" stroke-width="2" fill="none"/></g><g transform="translate(690 290) rotate(0 110 0)"><path d="M196.51 -8.55 C205.85 -5.15, 215.19 -1.75, 220 0 M196.51 -8.55 C201.46 -6.75, 206.4 -4.95, 220 0" stroke="#1971c2" stroke-width="2" fill="none"/></g></g><mask id="mask-ZH9k9EdB5UaHIWg4zsrog"><rect x="0" y="0" fill="#fff" width="1010" height="390"/><rect x="722.9521484375" y="273.9" fill="#000" width="154.095703125" height="32.199999999999996" opacity="1"/></mask><g transform="translate(722.9521484375 273.9) rotate(0 77.0478515625 16.099999999999994)"><text x="77.0478515625" y="25.760546874999996" font-family="Helvetica, Segoe UI Emoji" font-size="28px" fill="#1971c2" text-anchor="middle" style="white-space: pre;" direction="ltr" dominant-baseline="alphabetic">Seqlock Vec</text></g><g stroke-linecap="round" transform="translate(930 510) rotate(0 100 250)"><path d="M32 0 C80.57 0, 129.15 0, 168 0 M32 0 C72.64 0, 113.29 0, 168 0 M168 0 C189.33 0, 200 10.67, 200 32 M168 0 C189.33 0, 200 10.67, 200 32 M200 32 C200 128.26, 200 224.53, 200 468 M200 32 C200 122.74, 200 213.48, 200 468 M200 468 C200 489.33, 189.33 500, 168 500 M200 468 C200 489.33, 189.33 500, 168 500 M168 500 C114.19 500, 60.39 500, 32 500 M168 500 C131.55 500, 95.1 500, 32 500 M32 500 C10.67 500, 0 489.33, 0 468 M32 500 C10.67 500, 0 489.33, 0 468 M0 468 C0 372.74, 0 277.48, 0 32 M0 468 C0 324.66, 0 181.33, 0 32 M0 32 C0 10.67, 10.67 0, 32 0 M0 32 C0 10.67, 10.67 0, 32 0" stroke="#e03131" stroke-width="2" fill="none"/></g><g stroke-linecap="round"><g transform="translate(1169 627.4109407379586) rotate(0 -19 51.290889451033706)"><path d="M0 0 C-6.33 17.1, -31.67 85.48, -38 102.58 M0 0 C-6.33 17.1, -31.67 85.48, -38 102.58" stroke="#e03131" stroke-width="2" fill="none"/></g><g transform="translate(1169 627.4109407379586) rotate(0 -19 51.290889451033706)"><path d="M-37.86 77.58 C-37.89 83.82, -37.93 90.06, -38 102.58 M-37.86 77.58 C-37.9 85.89, -37.95 94.19, -38 102.58" stroke="#e03131" stroke-width="2" fill="none"/></g><g transform="translate(1169 627.4109407379586) rotate(0 -19 51.290889451033706)"><path d="M-21.82 83.52 C-25.86 88.28, -29.9 93.04, -38 102.58 M-21.82 83.52 C-27.2 89.85, -32.57 96.19, -38 102.58" stroke="#e03131" stroke-width="2" fill="none"/></g></g><mask/><g stroke-linecap="round"><g transform="translate(1169 839.8616492093962) rotate(0 -19 -24.176039526922693)"><path d="M0 0 C-6.33 -8.06, -31.67 -40.29, -38 -48.35 M0 0 C-6.33 -8.06, -31.67 -40.29, -38 -48.35" stroke="#e03131" stroke-width="2" fill="none"/></g><g transform="translate(1169 839.8616492093962) rotate(0 -19 -24.176039526922693)"><path d="M-16.76 -35.16 C-22.32 -38.62, -27.89 -42.07, -38 -48.35 M-16.76 -35.16 C-21.56 -38.14, -26.35 -41.12, -38 -48.35" stroke="#e03131" stroke-width="2" fill="none"/></g><g transform="translate(1169 839.8616492093962) rotate(0 -19 -24.176039526922693)"><path d="M-30.21 -24.6 C-32.25 -30.82, -34.29 -37.04, -38 -48.35 M-30.21 -24.6 C-31.97 -29.96, -33.73 -35.33, -38 -48.35" stroke="#e03131" stroke-width="2" fill="none"/></g></g><mask/><g stroke-linecap="round"><g transform="translate(930 750) rotate(0 -20 0)"><path d="M0 0 C-6.67 0, -33.33 0, -40 0 M0 0 C-6.67 0, -33.33 0, -40 0" stroke="#e03131" stroke-width="2" fill="none"/></g><g transform="translate(930 750) rotate(0 -20 0)"><path d="M-21.21 -6.84 C-25 -5.46, -28.8 -4.08, -40 0 M-21.21 -6.84 C-25.87 -5.14, -30.54 -3.44, -40 0" stroke="#e03131" stroke-width="2" fill="none"/></g><g transform="translate(930 750) rotate(0 -20 0)"><path d="M-21.21 6.84 C-25 5.46, -28.8 4.08, -40 0 M-21.21 6.84 C-25.87 5.14, -30.54 3.44, -40 0" stroke="#e03131" stroke-width="2" fill="none"/></g></g><mask/></svg>