<svg version="1.1" xmlns="http://www.w3.org/2000/svg" viewBox="0 0 865 180.55703741032062" width="865" height="180.55703741032062" filter="invert(93%) hue-rotate(180deg)" class="excalidraw-svg">
  <!-- svg-source:excalidraw -->
  
  <defs>
    <style class="style-fonts">
      @font-face {
        font-family: "Virgil";
        src: url("https://excalidraw.com/Virgil.woff2");
      }
      @font-face {
        font-family: "Cascadia";
        src: url("https://excalidraw.com/Cascadia.woff2");
      }
      @font-face {
        font-family: "Assistant";
        src: url("https://excalidraw.com/Assistant-Regular.woff2");
      }
    </style>
    
  </defs>
  <rect x="0" y="0" width="865" height="180.55703741032062" fill="#ffffff"/><g stroke-linecap="round" transform="translate(370 10) rotate(0 34.91004901386509 9.646197753831139)"><path d="M0 0 C0 0, 0 0, 0 0 M0 0 C0 0, 0 0, 0 0 M0.13 12.04 C3.44 8.04, 5.62 5.2, 10.63 -0.03 M0.13 12.04 C3.48 8.34, 6.62 4.63, 10.63 -0.03 M4.2 19.55 C8.73 14.67, 14.06 8.22, 21.26 -0.07 M4.2 19.55 C10.42 12.09, 17.75 4.27, 21.26 -0.07 M14.83 19.52 C18.79 15.18, 24.58 9.99, 31.89 -0.1 M14.83 19.52 C21.63 11.79, 27.73 4.59, 31.89 -0.1 M25.46 19.48 C32.55 12.78, 37.31 5.4, 42.52 -0.14 M25.46 19.48 C29.14 15.01, 32.81 11.01, 42.52 -0.14 M36.09 19.45 C38.73 16.17, 42.52 11.71, 53.15 -0.17 M36.09 19.45 C41.68 12.59, 48.03 5.44, 53.15 -0.17 M46.72 19.42 C52.54 12.26, 58.6 5.81, 63.78 -0.21 M46.72 19.42 C53 12.3, 58.21 5.61, 63.78 -0.21 M57.35 19.38 C60.41 16.47, 63.57 11.32, 69.82 5.04 M57.35 19.38 C60.99 15, 64.79 10.78, 69.82 5.04 M67.98 19.35 C68.5 18.81, 69.08 18.32, 69.95 17.08 M67.98 19.35 C68.68 18.6, 69.29 17.84, 69.95 17.08" stroke="#868e96" stroke-width="1" fill="none"/><path d="M0 0 C19.05 0.71, 37.15 0.38, 69.82 0 M0 0 C20.43 -0.1, 41.61 -0.64, 69.82 0 M69.82 0 C69.73 4.57, 70.71 10.7, 69.82 19.29 M69.82 0 C69.42 6.33, 69.3 11.78, 69.82 19.29 M69.82 19.29 C45.24 19.42, 22.81 19.28, 0 19.29 M69.82 19.29 C41.53 19.53, 14.02 19.61, 0 19.29 M0 19.29 C-0.58 14.54, 0.81 10.78, 0 0 M0 19.29 C-0.54 14.08, 0.13 8.4, 0 0" stroke="#1e1e1e" stroke-width="2" fill="none"/></g><g transform="translate(450 10) rotate(0 29.183563232421875 11.294820642667752)"><text x="0" y="18.07209668386088" font-family="Helvetica, Segoe UI Emoji" font-size="19.643166335074348px" fill="#1e1e1e" text-anchor="start" style="white-space: pre;" direction="ltr" dominant-baseline="alphabetic">= Data</text></g><g stroke-linecap="round" transform="translate(140.8378413797741 56.225673628416644) rotate(269.80502349535556 59.99540027638227 53.96290792512)"><path d="M0 0 C0 0, 0 0, 0 0 M0 0 C0 0, 0 0, 0 0 M0.13 12.04 C0.97 8.39, 4.28 6.87, 10.63 -0.03 M0.13 12.04 C2.85 8.79, 5.95 4.69, 10.63 -0.03 M0.27 24.08 C6.37 17.4, 11.51 10.04, 21.26 -0.07 M0.27 24.08 C4.26 18.22, 10.54 13.31, 21.26 -0.07 M-0.26 36.88 C8.98 25.13, 19.04 15.54, 31.89 -0.1 M-0.26 36.88 C7.5 25.61, 17.41 16.72, 31.89 -0.1 M-0.12 48.92 C12.26 32.24, 29.26 16.72, 42.52 -0.14 M-0.12 48.92 C13.94 33.36, 27.55 18.51, 42.52 -0.14 M0.01 60.96 C16.76 43.44, 33.73 22.17, 53.15 -0.17 M0.01 60.96 C17.51 41.15, 35.51 20.99, 53.15 -0.17 M0.14 73 C16.07 58.26, 26.96 39.94, 63.78 -0.21 M0.14 73 C13.73 56.08, 27.93 40.84, 63.78 -0.21 M0.28 85.04 C26.39 55.15, 46.78 28.5, 74.41 -0.24 M0.28 85.04 C21.07 59.62, 42.42 35.66, 74.41 -0.24 M-0.25 97.84 C32.76 58.09, 68.3 18.96, 85.04 -0.28 M-0.25 97.84 C24.3 71.2, 47.24 44.59, 85.04 -0.28 M1.2 108.37 C23.64 84.31, 44.94 56.85, 95.67 -0.31 M1.2 108.37 C22.24 83.4, 44.17 60.34, 95.67 -0.31 M11.83 108.33 C45.2 68.82, 78.9 31.81, 106.3 -0.34 M11.83 108.33 C38.67 79.08, 65.7 48.68, 106.3 -0.34 M22.46 108.3 C49.75 75.39, 81.03 43.22, 116.27 0.38 M22.46 108.3 C44.43 84.21, 65.65 59.46, 116.27 0.38 M33.09 108.26 C59.07 76.64, 87.03 45.88, 120.34 7.89 M33.09 108.26 C57.57 79.23, 82.04 51.06, 120.34 7.89 M43.72 108.23 C60.71 87.51, 80.71 66.31, 120.48 19.93 M43.72 108.23 C73.82 73.06, 103.21 39.99, 120.48 19.93 M54.35 108.2 C73.63 88.19, 88.65 68.24, 120.61 31.97 M54.35 108.2 C69.07 91.63, 83.1 75.15, 120.61 31.97 M64.98 108.16 C86.81 83.04, 103.56 61.14, 120.09 44.77 M64.98 108.16 C77.9 92.88, 93.45 75.87, 120.09 44.77 M75.61 108.13 C90.6 88.14, 106.82 70.47, 120.22 56.81 M75.61 108.13 C87.95 95.07, 100.65 81.04, 120.22 56.81 M86.24 108.09 C101.15 91.39, 112.09 76.12, 120.35 68.85 M86.24 108.09 C96.67 96.16, 108.8 82.55, 120.35 68.85 M96.87 108.06 C103.23 100.41, 114.83 88.39, 120.49 80.89 M96.87 108.06 C103.38 100.52, 109.14 93.33, 120.49 80.89 M107.5 108.02 C110.52 105.32, 115.26 102.93, 120.62 92.93 M107.5 108.02 C111.33 101.81, 117.63 97.35, 120.62 92.93 M118.13 107.99 C118.44 107.41, 119.2 107.01, 120.1 105.72 M118.13 107.99 C118.94 107.28, 119.5 106.31, 120.1 105.72" stroke="#868e96" stroke-width="1" fill="none"/><path d="M0 0 C41.35 -0.57, 80.03 -0.5, 119.99 0 M0 0 C45.84 -0.2, 92.33 -0.53, 119.99 0 M119.99 0 C117.66 36.11, 120.9 74.54, 119.99 107.93 M119.99 0 C118.79 34.56, 119.93 67.83, 119.99 107.93 M119.99 107.93 C92.66 107.15, 69.61 107.52, 0 107.93 M119.99 107.93 C86.09 109.03, 53.31 109.37, 0 107.93 M0 107.93 C2.77 81.53, 2.44 56.62, 0 0 M0 107.93 C0.82 78.53, 0.79 51.2, 0 0" stroke="#1e1e1e" stroke-width="2" fill="none"/></g><g transform="translate(168.19388313564855 97.44274822020331) rotate(269.80502349535556 32.63935852050781 12.745833333333334)"><text x="32.63935852050781" y="20.393766276041667" font-family="Helvetica, Segoe UI Emoji" font-size="22.166666666666668px" fill="#1e1e1e" text-anchor="middle" style="white-space: pre;" direction="ltr" dominant-baseline="alphabetic">Data 0</text></g><g stroke-linecap="round" transform="translate(68.15797688715452 92.46957758000589) rotate(269.80502349535556 59.791221752250976 17.745833333333433)"><path d="M0 0 C35.57 -1.45, 69.61 -0.38, 119.58 0 M0 0 C47.12 -1.13, 93.3 -1.63, 119.58 0 M119.58 0 C120.18 8.19, 120.3 17.81, 119.58 35.49 M119.58 0 C118.92 11.16, 120.33 22.47, 119.58 35.49 M119.58 35.49 C91.79 35.88, 66.6 34.65, 0 35.49 M119.58 35.49 C83.29 34.96, 47.55 36.77, 0 35.49 M0 35.49 C-0.93 25.35, -0.94 17.29, 0 0 M0 35.49 C-1.03 26.39, 0.01 18.88, 0 0" stroke="#e03131" stroke-width="2" fill="none"/></g><g transform="translate(78.36820498706174 97.46957758000589) rotate(269.80502349535556 49.58099365234375 12.745833333333334)"><text x="49.58099365234375" y="20.393766276041667" font-family="Helvetica, Segoe UI Emoji" font-size="22.166666666666668px" fill="#e03131" text-anchor="middle" style="white-space: pre;" direction="ltr" dominant-baseline="alphabetic">Version=0</text></g><g transform="translate(237.17135421766352 100.5191780997292) rotate(270 35.5908203125 11.5)"><text x="0" y="18.400390625" font-family="Helvetica, Segoe UI Emoji" font-size="20px" fill="#1e1e1e" text-anchor="start" style="white-space: pre;" direction="ltr" dominant-baseline="alphabetic">padding</text></g><g stroke-linecap="round" transform="translate(255 50) rotate(0 20 60)"><path d="M0 0 C12.1 0.78, 20.99 -0.28, 40 0 M0 0 C8.75 -0.1, 15.93 -0.04, 40 0 M40 0 C38.95 27.9, 39.26 60.39, 40 120 M40 0 C38.63 24.5, 39.66 50.31, 40 120 M40 120 C29.08 119.16, 15 119.04, 0 120 M40 120 C24.65 119.95, 8.68 119.95, 0 120 M0 120 C2.26 75.68, -0.89 35.11, 0 0 M0 120 C-0.16 84.56, 0.93 50.16, 0 0" stroke="#1e1e1e" stroke-width="2" fill="none"/></g><g stroke-linecap="round" transform="translate(324.1713580674616 56.2157794179401) rotate(269.80502349535556 59.995400276382156 53.96290792512011)"><path d="M0 0 C0 0, 0 0, 0 0 M0 0 C0 0, 0 0, 0 0 M0.13 12.04 C4.34 8.04, 7.28 4.35, 10.63 -0.03 M0.13 12.04 C3.67 8.72, 6.49 4.03, 10.63 -0.03 M0.27 24.08 C9.44 14.76, 15.81 5.24, 21.26 -0.07 M0.27 24.08 C8.94 15.66, 14.81 5.63, 21.26 -0.07 M-0.26 36.88 C8.3 27.75, 16.36 15.12, 31.89 -0.1 M-0.26 36.88 C9.69 24.03, 21.67 11.48, 31.89 -0.1 M-0.12 48.92 C12.61 34.08, 28.65 17.25, 42.52 -0.14 M-0.12 48.92 C13.59 33.4, 27.68 17.4, 42.52 -0.14 M0.01 60.96 C18.68 38.64, 41.94 16.24, 53.15 -0.17 M0.01 60.96 C12.38 48.27, 24.67 32.56, 53.15 -0.17 M0.14 73 C22.96 47.35, 48.34 18.04, 63.78 -0.21 M0.14 73 C13.96 58.08, 26.64 41.88, 63.78 -0.21 M0.28 85.04 C18.45 62.73, 37.58 39.28, 74.41 -0.24 M0.28 85.04 C26.96 54.92, 54.09 25.36, 74.41 -0.24 M-0.25 97.84 C26.49 66.03, 53.04 37.65, 85.04 -0.28 M-0.25 97.84 C25.12 69.68, 50.87 39.19, 85.04 -0.28 M1.2 108.37 C38.56 65.84, 74.28 23.27, 95.67 -0.31 M1.2 108.37 C31.14 72.86, 63 37.74, 95.67 -0.31 M11.83 108.33 C48.01 65.48, 84.76 22.2, 106.3 -0.34 M11.83 108.33 C47.34 67.14, 83.69 26.5, 106.3 -0.34 M22.46 108.3 C49.69 78.36, 73.88 48.04, 116.27 0.38 M22.46 108.3 C55.43 71.18, 86.55 34.55, 116.27 0.38 M33.09 108.26 C51.92 85.24, 68.54 65.72, 120.34 7.89 M33.09 108.26 C55.24 80.8, 77.28 55.06, 120.34 7.89 M43.72 108.23 C60 89.24, 76.92 71.7, 120.48 19.93 M43.72 108.23 C61.16 88.25, 79.47 67.53, 120.48 19.93 M54.35 108.2 C74.24 86.4, 96.23 59.99, 120.61 31.97 M54.35 108.2 C71.49 89.21, 86.02 72.12, 120.61 31.97 M64.98 108.16 C84.2 87.06, 99.93 65.06, 120.09 44.77 M64.98 108.16 C76.18 94.28, 89.21 80.92, 120.09 44.77 M75.61 108.13 C91.19 88.82, 111.05 67.1, 120.22 56.81 M75.61 108.13 C88.03 93.16, 99.65 80.57, 120.22 56.81 M86.24 108.09 C96.98 96.12, 107.13 83.75, 120.35 68.85 M86.24 108.09 C99.85 92.65, 112.52 78.11, 120.35 68.85 M96.87 108.06 C102.25 98.39, 111.07 92.57, 120.49 80.89 M96.87 108.06 C106.78 97.11, 114.2 86.05, 120.49 80.89 M107.5 108.02 C113.94 103.15, 116.41 96.56, 120.62 92.93 M107.5 108.02 C111.8 103.29, 117.19 98.31, 120.62 92.93 M118.13 107.99 C118.45 107.25, 119.54 106.43, 120.1 105.72 M118.13 107.99 C118.59 107.34, 119.18 106.92, 120.1 105.72" stroke="#868e96" stroke-width="1" fill="none"/><path d="M0 0 C36.44 -0.73, 72.75 -1.18, 119.99 0 M0 0 C43.61 0.03, 87.94 0.09, 119.99 0 M119.99 0 C118.14 40.02, 117.35 76.49, 119.99 107.93 M119.99 0 C119.93 36.05, 119.32 70.22, 119.99 107.93 M119.99 107.93 C71.08 105.87, 27.62 106.64, 0 107.93 M119.99 107.93 C75.08 107.18, 31.22 106.84, 0 107.93 M0 107.93 C-2.49 70.27, -1.01 30.54, 0 0 M0 107.93 C1.17 74.76, 1.61 42.58, 0 0" stroke="#1e1e1e" stroke-width="2" fill="none"/></g><g transform="translate(351.52739982333594 97.43285400972688) rotate(269.80502349535556 32.63935852050781 12.745833333333334)"><text x="32.63935852050781" y="20.393766276041667" font-family="Helvetica, Segoe UI Emoji" font-size="22.166666666666668px" fill="#1e1e1e" text-anchor="middle" style="white-space: pre;" direction="ltr" dominant-baseline="alphabetic">Data 1</text></g><g stroke-linecap="round" transform="translate(254.15797688715452 92.46957758000623) rotate(269.80502349535556 59.791221752250976 17.745833333333334)"><path d="M0 0 C35.84 1.35, 69.28 -0.84, 119.58 0 M0 0 C39.31 -1.06, 76.52 -0.91, 119.58 0 M119.58 0 C119.76 11.49, 118.88 26.1, 119.58 35.49 M119.58 0 C120.47 14.29, 118.94 26.99, 119.58 35.49 M119.58 35.49 C93.1 35.53, 63.05 34.67, 0 35.49 M119.58 35.49 C88.34 35.41, 55.21 33.83, 0 35.49 M0 35.49 C0.08 22.3, -1.56 13.13, 0 0 M0 35.49 C-1 27.35, 0.17 17.33, 0 0" stroke="#e03131" stroke-width="2" fill="none"/></g><g transform="translate(264.36820498706174 97.46957758000623) rotate(269.80502349535556 49.58099365234375 12.745833333333334)"><text x="49.58099365234375" y="20.393766276041667" font-family="Helvetica, Segoe UI Emoji" font-size="22.166666666666668px" fill="#e03131" text-anchor="middle" style="white-space: pre;" direction="ltr" dominant-baseline="alphabetic">Version=0</text></g><g transform="translate(423.1713542176635 100.5191780997292) rotate(270 35.5908203125 11.5)"><text x="0" y="18.400390625" font-family="Helvetica, Segoe UI Emoji" font-size="20px" fill="#1e1e1e" text-anchor="start" style="white-space: pre;" direction="ltr" dominant-baseline="alphabetic">padding</text></g><g stroke-linecap="round" transform="translate(441 50) rotate(0 20 60)"><path d="M0 0 C10.11 1.43, 17.61 -1.55, 40 0 M0 0 C9.1 0.63, 19.09 0.19, 40 0 M40 0 C41.09 43.94, 41.77 82.98, 40 120 M40 0 C38.92 25.64, 39.39 49.5, 40 120 M40 120 C27.63 121.27, 19.41 118.54, 0 120 M40 120 C30.77 119.97, 21.88 119.16, 0 120 M0 120 C0.37 80.41, 1.66 44.72, 0 0 M0 120 C-0.62 94.12, 0.07 69.51, 0 0" stroke="#1e1e1e" stroke-width="2" fill="none"/></g><g stroke-linecap="round" transform="translate(514.8378413797741 56.225673628416516) rotate(269.80502349535556 59.9954002763821 53.96290792512011)"><path d="M0 0 C0 0, 0 0, 0 0 M0 0 C0 0, 0 0, 0 0 M0.13 12.04 C3.18 9.1, 6.04 6.27, 10.63 -0.03 M0.13 12.04 C3.41 7.94, 7.68 4.55, 10.63 -0.03 M0.27 24.08 C6.27 19.8, 8.47 16.01, 21.26 -0.07 M0.27 24.08 C4.92 19.3, 7.86 14.09, 21.26 -0.07 M-0.26 36.88 C11 24.95, 19 14.75, 31.89 -0.1 M-0.26 36.88 C8.55 26.19, 18.07 15.53, 31.89 -0.1 M-0.12 48.92 C12.91 31.81, 24.48 18.84, 42.52 -0.14 M-0.12 48.92 C15.08 29.87, 31.52 13.14, 42.52 -0.14 M0.01 60.96 C15.17 43.14, 31.21 25.65, 53.15 -0.17 M0.01 60.96 C20.97 37.38, 42.43 13.84, 53.15 -0.17 M0.14 73 C17.19 56.03, 32.81 35.48, 63.78 -0.21 M0.14 73 C15.7 54.04, 32.33 35.68, 63.78 -0.21 M0.28 85.04 C29.82 51.33, 57.07 18.65, 74.41 -0.24 M0.28 85.04 C24.53 55.24, 49.69 27.46, 74.41 -0.24 M-0.25 97.84 C22.25 72.99, 45.34 46.41, 85.04 -0.28 M-0.25 97.84 C27.71 66.04, 53.81 34.99, 85.04 -0.28 M1.2 108.37 C28.06 76.07, 54.21 44.63, 95.67 -0.31 M1.2 108.37 C22.9 82.14, 44.04 57.51, 95.67 -0.31 M11.83 108.33 C40.25 76.01, 70.06 42.99, 106.3 -0.34 M11.83 108.33 C39.23 76.49, 67.5 44.75, 106.3 -0.34 M21.8 109.05 C51.36 76.48, 78.86 43.49, 116.27 0.38 M21.8 109.05 C41.8 87.79, 61.26 63.3, 116.27 0.38 M32.43 109.02 C63.59 76.7, 90.95 44.12, 124.28 3.36 M32.43 109.02 C67.92 68.38, 102.46 28.85, 124.28 3.36 M43.06 108.98 C70.55 78.69, 97.77 47.58, 124.41 15.4 M43.06 108.98 C75.87 71.76, 109.39 34.2, 124.41 15.4 M53.69 108.95 C67.85 93.65, 82.96 75.91, 123.89 28.2 M53.69 108.95 C70.97 89.98, 86.59 71.08, 123.89 28.2 M64.32 108.92 C82.41 89.44, 98.54 67.74, 124.02 40.24 M64.32 108.92 C86.63 83.26, 109.99 56.07, 124.02 40.24 M74.95 108.88 C85.16 96.79, 96.27 84.25, 124.16 52.28 M74.95 108.88 C84.12 96.55, 95.19 84.54, 124.16 52.28 M85.58 108.85 C98.02 91.96, 110.72 76.38, 124.29 64.32 M85.58 108.85 C97.74 95.88, 109.44 81.76, 124.29 64.32 M96.21 108.81 C103.17 100.23, 110.58 94.85, 124.42 76.36 M96.21 108.81 C103.71 101.09, 110.18 93, 124.42 76.36 M106.84 108.78 C111.95 100.18, 117.89 93.27, 123.9 89.16 M106.84 108.78 C113.22 101.79, 119.09 94.11, 123.9 89.16 M117.47 108.74 C120.61 106.32, 122.79 102.52, 124.03 101.2 M117.47 108.74 C119.16 106.75, 121.14 105.01, 124.03 101.2" stroke="#868e96" stroke-width="1" fill="none"/><path d="M0 0 C28.25 -2.49, 58.23 0.34, 119.99 0 M0 0 C24.16 -0.49, 49.88 0.63, 119.99 0 M119.99 0 C120.63 30.02, 118.13 61.13, 119.99 107.93 M119.99 0 C119.87 41.59, 119.44 83.5, 119.99 107.93 M119.99 107.93 C78.81 106.87, 33.01 108.95, 0 107.93 M119.99 107.93 C84.43 107.15, 50.89 107.38, 0 107.93 M0 107.93 C1.15 69.75, -1.63 29.61, 0 0 M0 107.93 C0.75 65.78, 0.65 22.78, 0 0" stroke="#1e1e1e" stroke-width="2" fill="none"/></g><g transform="translate(542.1938831356483 97.4427482202033) rotate(269.80502349535556 32.63935852050781 12.745833333333334)"><text x="32.63935852050781" y="20.393766276041667" font-family="Helvetica, Segoe UI Emoji" font-size="22.166666666666668px" fill="#1e1e1e" text-anchor="middle" style="white-space: pre;" direction="ltr" dominant-baseline="alphabetic">Data 2</text></g><g stroke-linecap="round" transform="translate(442.1579768871543 92.46957758000617) rotate(269.80502349535556 59.79122175225109 17.745833333333334)"><path d="M0 0 C23.47 -2.05, 51.22 -1.69, 119.58 0 M0 0 C33.58 -1.13, 68.29 -0.79, 119.58 0 M119.58 0 C121.02 7.94, 120.7 17.37, 119.58 35.49 M119.58 0 C120.05 8.77, 120.02 19.62, 119.58 35.49 M119.58 35.49 C93.54 34.45, 67.99 33.88, 0 35.49 M119.58 35.49 C93.86 34.66, 66.14 35.3, 0 35.49 M0 35.49 C2.13 21.74, -0.95 11.1, 0 0 M0 35.49 C0.95 24.55, 0.25 14.22, 0 0" stroke="#e03131" stroke-width="2" fill="none"/></g><g transform="translate(452.36820498706163 97.46957758000617) rotate(269.80502349535556 49.58099365234375 12.745833333333334)"><text x="49.58099365234375" y="20.393766276041667" font-family="Helvetica, Segoe UI Emoji" font-size="22.166666666666668px" fill="#e03131" text-anchor="middle" style="white-space: pre;" direction="ltr" dominant-baseline="alphabetic">Version=0</text></g><g transform="translate(611.1713542176635 100.5191780997292) rotate(270 35.5908203125 11.5)"><text x="0" y="18.400390625" font-family="Helvetica, Segoe UI Emoji" font-size="20px" fill="#1e1e1e" text-anchor="start" style="white-space: pre;" direction="ltr" dominant-baseline="alphabetic">padding</text></g><g stroke-linecap="round" transform="translate(629 50) rotate(0 20 60)"><path d="M0 0 C11.77 -0.42, 19.77 1.64, 40 0 M0 0 C12.64 1.25, 26.34 1.09, 40 0 M40 0 C38.91 39.34, 38.24 77.51, 40 120 M40 0 C39.19 44.6, 38.35 89.45, 40 120 M40 120 C30.56 121.28, 23.09 118.5, 0 120 M40 120 C25.83 120.55, 11.21 119.01, 0 120 M0 120 C-1.73 87.94, -0.58 52.76, 0 0 M0 120 C1.65 83.44, 1.5 47.09, 0 0" stroke="#1e1e1e" stroke-width="2" fill="none"/></g><g stroke-linecap="round" transform="translate(700.8378413797741 56.225673628417326) rotate(269.80502349535556 59.995400276382156 53.96290792512017)"><path d="M0 0 C0 0, 0 0, 0 0 M0 0 C0 0, 0 0, 0 0 M0.13 12.04 C2.99 7.33, 9.47 3.26, 10.63 -0.03 M0.13 12.04 C2.88 9.21, 6.05 5.75, 10.63 -0.03 M0.27 24.08 C4.49 19.58, 10.27 13.66, 21.26 -0.07 M0.27 24.08 C5.55 19.04, 8.93 13.76, 21.26 -0.07 M-0.26 36.88 C9.13 28.18, 17.49 14.66, 31.89 -0.1 M-0.26 36.88 C7.52 27.64, 13.53 19.18, 31.89 -0.1 M-0.12 48.92 C9.99 36.21, 22.76 21.51, 42.52 -0.14 M-0.12 48.92 C10.35 34.22, 22.5 21.62, 42.52 -0.14 M0.01 60.96 C15.65 40.7, 33.96 23.77, 53.15 -0.17 M0.01 60.96 C12.74 46.37, 25.81 30.23, 53.15 -0.17 M0.14 73 C18.96 52.06, 38.02 29.79, 63.78 -0.21 M0.14 73 C23.09 47.39, 44.11 21.26, 63.78 -0.21 M0.28 85.04 C14.97 67.85, 33.06 48.07, 74.41 -0.24 M0.28 85.04 C25.59 55.57, 52.1 25.41, 74.41 -0.24 M-0.25 97.84 C18.97 79.16, 35.89 56.64, 85.04 -0.28 M-0.25 97.84 C21.11 74.44, 42.83 48.11, 85.04 -0.28 M1.2 108.37 C26.12 80.09, 50.17 52.98, 95.67 -0.31 M1.2 108.37 C35.95 68.57, 71.1 27.75, 95.67 -0.31 M11.83 108.33 C47.21 65.71, 84.66 25.36, 106.3 -0.34 M11.83 108.33 C43.5 73.7, 74.32 40.04, 106.3 -0.34 M22.46 108.3 C53.43 69.78, 89.02 34.34, 116.27 0.38 M22.46 108.3 C55.46 69.54, 88.28 32.05, 116.27 0.38 M33.09 108.26 C59.41 77.64, 85.89 48.48, 120.34 7.89 M33.09 108.26 C57.38 76.92, 83.85 47.16, 120.34 7.89 M43.72 108.23 C73.92 77.32, 100.81 45.9, 120.48 19.93 M43.72 108.23 C70.78 76.17, 99.07 44.87, 120.48 19.93 M54.35 108.2 C69.98 93.28, 83.67 76.8, 120.61 31.97 M54.35 108.2 C69.01 89.37, 84.56 71.87, 120.61 31.97 M64.98 108.16 C82.05 91.41, 95.81 73.88, 120.09 44.77 M64.98 108.16 C80.07 92.73, 93.3 74.88, 120.09 44.77 M75.61 108.13 C91.06 89.29, 107.2 69.18, 120.22 56.81 M75.61 108.13 C85.65 98.3, 95.46 87.32, 120.22 56.81 M86.24 108.09 C98.27 94.39, 113.78 76.15, 120.35 68.85 M86.24 108.09 C98.81 93.98, 112.07 79.37, 120.35 68.85 M96.87 108.06 C104.83 100.08, 109.2 90.96, 120.49 80.89 M96.87 108.06 C101.08 101.94, 106.49 97.04, 120.49 80.89 M107.5 108.02 C112.04 105.58, 116.7 100.03, 120.62 92.93 M107.5 108.02 C111.7 101.63, 117.32 96.57, 120.62 92.93 M118.13 107.99 C118.66 107.36, 119.74 106.56, 120.1 105.72 M118.13 107.99 C118.64 107.39, 118.95 107.09, 120.1 105.72" stroke="#868e96" stroke-width="1" fill="none"/><path d="M0 0 C42.06 1.97, 84.84 -1.08, 119.99 0 M0 0 C24.64 -0.34, 50.02 -1.4, 119.99 0 M119.99 0 C118.27 30.79, 121.07 57.79, 119.99 107.93 M119.99 0 C119.57 23.21, 119.28 45.59, 119.99 107.93 M119.99 107.93 C81.66 107.09, 44.93 109.42, 0 107.93 M119.99 107.93 C93.88 108.38, 69.32 109.01, 0 107.93 M0 107.93 C0.35 78.95, 0.99 47.6, 0 0 M0 107.93 C-0.19 79.93, -0.33 51.62, 0 0" stroke="#1e1e1e" stroke-width="2" fill="none"/></g><g transform="translate(728.1938831356484 97.44274822020417) rotate(269.80502349535556 32.63935852050781 12.745833333333334)"><text x="32.63935852050781" y="20.393766276041667" font-family="Helvetica, Segoe UI Emoji" font-size="22.166666666666668px" fill="#1e1e1e" text-anchor="middle" style="white-space: pre;" direction="ltr" dominant-baseline="alphabetic">Data 3</text></g><g stroke-linecap="round" transform="translate(628.1579768871545 92.46957758000617) rotate(269.80502349535556 59.791221752250976 17.745833333333334)"><path d="M0 0 C45.06 -0.6, 95.58 0.16, 119.58 0 M0 0 C44.26 0.06, 89.57 -0.27, 119.58 0 M119.58 0 C118.14 12.91, 119.61 23.76, 119.58 35.49 M119.58 0 C119.42 10.15, 119.86 21.29, 119.58 35.49 M119.58 35.49 C91.28 35.53, 68.38 34.21, 0 35.49 M119.58 35.49 C91 34.63, 63.84 35.2, 0 35.49 M0 35.49 C-0.87 25.48, -0.5 14.03, 0 0 M0 35.49 C-0.81 25.75, 0.63 15.25, 0 0" stroke="#e03131" stroke-width="2" fill="none"/></g><g transform="translate(638.3682049870617 97.46957758000617) rotate(269.80502349535556 49.58099365234375 12.745833333333334)"><text x="49.58099365234375" y="20.393766276041667" font-family="Helvetica, Segoe UI Emoji" font-size="22.166666666666668px" fill="#e03131" text-anchor="middle" style="white-space: pre;" direction="ltr" dominant-baseline="alphabetic">Version=0</text></g><g transform="translate(797.1713542176635 100.5191780997292) rotate(270 35.5908203125 11.5)"><text x="0" y="18.400390625" font-family="Helvetica, Segoe UI Emoji" font-size="20px" fill="#1e1e1e" text-anchor="start" style="white-space: pre;" direction="ltr" dominant-baseline="alphabetic">padding</text></g><g stroke-linecap="round" transform="translate(815 50) rotate(0 20 60)"><path d="M0 0 C10.2 -0.56, 21.07 1.03, 40 0 M0 0 C8.46 -1.14, 18.79 -0.4, 40 0 M40 0 C38.43 28.7, 38.89 57.94, 40 120 M40 0 C39.44 33.26, 38.85 69.22, 40 120 M40 120 C31.49 119.35, 21.25 121.63, 0 120 M40 120 C28.27 119.58, 18.91 119.77, 0 120 M0 120 C-1.37 77.48, 0.25 39.24, 0 0 M0 120 C0.66 93.82, 1.02 67.66, 0 0" stroke="#1e1e1e" stroke-width="2" fill="none"/></g><g stroke-linecap="round" transform="translate(170 10) rotate(0 34.91004901386509 9.646197753831139)"><path d="M0 0 C27 -0.93, 56.31 -0.85, 69.82 0 M0 0 C14.85 0.24, 30.16 -0.08, 69.82 0 M69.82 0 C69.13 6.97, 69.91 13.09, 69.82 19.29 M69.82 0 C69.54 6.83, 70.11 12.66, 69.82 19.29 M69.82 19.29 C55.62 19.86, 39.69 19.85, 0 19.29 M69.82 19.29 C53.6 19.17, 38.07 19.64, 0 19.29 M0 19.29 C0.35 12.55, 0.26 4.74, 0 0 M0 19.29 C0.14 12.97, 0.28 5.85, 0 0" stroke="#1e1e1e" stroke-width="2" fill="none"/></g><g transform="translate(250 10) rotate(0 44.467681884765625 11.294820642667752)"><text x="0" y="18.07209668386088" font-family="Helvetica, Segoe UI Emoji" font-size="19.643166335074348px" fill="#1e1e1e" text-anchor="start" style="white-space: pre;" direction="ltr" dominant-baseline="alphabetic">= Padding</text></g><g stroke-linecap="round" transform="translate(530 10) rotate(0 34.91004901386509 9.646197753831139)"><path d="M0 0 C20.7 0.15, 41.09 1.12, 69.82 0 M0 0 C14.85 0.07, 30.26 -0.07, 69.82 0 M69.82 0 C69.84 7.15, 69.99 13.37, 69.82 19.29 M69.82 0 C70.32 5.37, 70.21 11.8, 69.82 19.29 M69.82 19.29 C53.01 19.62, 36.22 19.51, 0 19.29 M69.82 19.29 C49.58 19.69, 29.58 19.03, 0 19.29 M0 19.29 C0.62 15.22, 0.78 11.52, 0 0 M0 19.29 C0.3 14.12, 0.43 8.55, 0 0" stroke="#e03131" stroke-width="2" fill="none"/></g><g transform="translate(610 10) rotate(0 43.365692138671875 11.294820642667752)"><text x="0" y="18.07209668386088" font-family="Helvetica, Segoe UI Emoji" font-size="19.643166335074348px" fill="#e03131" text-anchor="start" style="white-space: pre;" direction="ltr" dominant-baseline="alphabetic">= Seqlock</text></g><g stroke-linecap="round" transform="translate(-0.10941307718712778 60.48278123513103) rotate(269.80502349535556 60.109413077187014 49.79573747002956)"><path d="M0 0 C46.76 0, 94.45 0.29, 120.22 0 M0 0 C34.99 1.7, 67.87 1.84, 120.22 0 M120.22 0 C119.37 26.32, 119.31 51.77, 120.22 99.59 M120.22 0 C120.64 30.91, 120.1 59.23, 120.22 99.59 M120.22 99.59 C83.09 100.11, 40.29 99.77, 0 99.59 M120.22 99.59 C73.9 98.62, 27.82 98.89, 0 99.59 M0 99.59 C0.07 75.87, -1.51 57.46, 0 0 M0 99.59 C-0.12 73.67, -0.38 50.25, 0 0" stroke="#1971c2" stroke-width="2" fill="none"/></g><g transform="translate(23.66613006591797 97.5326853718274) rotate(269.80502349535556 36.33386993408203 12.745833333333184)"><text x="36.33386993408203" y="20.39376627604143" font-family="Helvetica, Segoe UI Emoji" font-size="22.16666666666641px" fill="#1971c2" text-anchor="middle" style="white-space: pre;" direction="ltr" dominant-baseline="alphabetic">Header</text></g></svg>